<mxfile host="app.diagrams.net" modified="2020-08-21T13:56:06.607Z" agent="5.0 (X11)" etag="LucPQUjYanB8-q9bK_2W" version="13.6.3" type="github">
  <diagram id="1NkAsfH9KzE3saYKE_k4" name="Page-1">
    <mxGraphModel dx="3055" dy="1876" grid="1" gridSize="10" guides="1" tooltips="1" connect="1" arrows="1" fold="1" page="1" pageScale="1" pageWidth="850" pageHeight="1100" math="0" shadow="0">
      <root>
        <mxCell id="0" />
        <mxCell id="1" parent="0" />
        <mxCell id="Mnvv_WwJ39rHPu0QQhqr-1" value="Cart3D.c" style="swimlane;" parent="1" vertex="1">
          <mxGeometry x="-845" y="-120" width="1690" height="1090" as="geometry">
            <mxRectangle x="-850" width="90" height="23" as="alternateBounds" />
          </mxGeometry>
        </mxCell>
        <mxCell id="Mnvv_WwJ39rHPu0QQhqr-2" value="Initialize variables" style="rounded=1;whiteSpace=wrap;html=1;" parent="Mnvv_WwJ39rHPu0QQhqr-1" vertex="1">
          <mxGeometry x="945" y="30" width="120" height="20" as="geometry" />
        </mxCell>
        <mxCell id="Mnvv_WwJ39rHPu0QQhqr-3" value="MPI start" style="rounded=1;whiteSpace=wrap;html=1;" parent="Mnvv_WwJ39rHPu0QQhqr-1" vertex="1">
          <mxGeometry x="945" y="60" width="120" height="20" as="geometry" />
        </mxCell>
        <mxCell id="Mnvv_WwJ39rHPu0QQhqr-4" value="&lt;div&gt;Initialize Data_bag&lt;/div&gt;" style="rounded=1;whiteSpace=wrap;html=1;" parent="Mnvv_WwJ39rHPu0QQhqr-1" vertex="1">
          <mxGeometry x="945" y="90" width="120" height="20" as="geometry" />
        </mxCell>
        <mxCell id="Mnvv_WwJ39rHPu0QQhqr-5" value="&lt;div&gt;Read input parameters&lt;/div&gt;" style="rounded=1;whiteSpace=wrap;html=1;" parent="Mnvv_WwJ39rHPu0QQhqr-1" vertex="1">
          <mxGeometry x="945" y="120" width="120" height="30" as="geometry" />
        </mxCell>
        <mxCell id="Mnvv_WwJ39rHPu0QQhqr-6" value="&lt;div&gt;Create Grid&lt;/div&gt;" style="rounded=1;whiteSpace=wrap;html=1;" parent="Mnvv_WwJ39rHPu0QQhqr-1" vertex="1">
          <mxGeometry x="945" y="160" width="120" height="20" as="geometry" />
        </mxCell>
        <mxCell id="Mnvv_WwJ39rHPu0QQhqr-7" value="&lt;div&gt;Setup timer&lt;/div&gt;" style="rounded=1;whiteSpace=wrap;html=1;" parent="Mnvv_WwJ39rHPu0QQhqr-1" vertex="1">
          <mxGeometry x="945" y="190" width="120" height="20" as="geometry" />
        </mxCell>
        <mxCell id="Mnvv_WwJ39rHPu0QQhqr-8" value="&lt;div&gt;Create:&lt;/div&gt;&lt;div&gt;Velocity&lt;/div&gt;&lt;div&gt;Pressure&lt;/div&gt;&lt;div&gt;Viccosity&lt;br&gt;&lt;/div&gt;" style="rounded=1;whiteSpace=wrap;html=1;" parent="Mnvv_WwJ39rHPu0QQhqr-1" vertex="1">
          <mxGeometry x="945" y="220" width="120" height="60" as="geometry" />
        </mxCell>
        <mxCell id="BQN_1DTDuwJgb3e3rP3L-76" value="U solvers" style="swimlane;fontStyle=0;childLayout=stackLayout;horizontal=1;startSize=26;fillColor=none;horizontalStack=0;resizeParent=1;resizeParentMax=0;resizeLast=0;collapsible=1;marginBottom=0;" parent="Mnvv_WwJ39rHPu0QQhqr-1" vertex="1">
          <mxGeometry x="10" y="780" width="190" height="130" as="geometry" />
        </mxCell>
        <mxCell id="BQN_1DTDuwJgb3e3rP3L-77" value="Velocity_solve_cg()" style="text;strokeColor=none;fillColor=none;align=left;verticalAlign=top;spacingLeft=4;spacingRight=4;overflow=hidden;rotatable=0;points=[[0,0.5],[1,0.5]];portConstraint=eastwest;" parent="BQN_1DTDuwJgb3e3rP3L-76" vertex="1">
          <mxGeometry y="26" width="190" height="26" as="geometry" />
        </mxCell>
        <mxCell id="BQN_1DTDuwJgb3e3rP3L-78" value="Velocity_solve_bicg()" style="text;strokeColor=none;fillColor=none;align=left;verticalAlign=top;spacingLeft=4;spacingRight=4;overflow=hidden;rotatable=0;points=[[0,0.5],[1,0.5]];portConstraint=eastwest;" parent="BQN_1DTDuwJgb3e3rP3L-76" vertex="1">
          <mxGeometry y="52" width="190" height="26" as="geometry" />
        </mxCell>
        <mxCell id="BQN_1DTDuwJgb3e3rP3L-79" value="Velocity_solve_explicit()" style="text;strokeColor=none;fillColor=none;align=left;verticalAlign=top;spacingLeft=4;spacingRight=4;overflow=hidden;rotatable=0;points=[[0,0.5],[1,0.5]];portConstraint=eastwest;" parent="BQN_1DTDuwJgb3e3rP3L-76" vertex="1">
          <mxGeometry y="78" width="190" height="26" as="geometry" />
        </mxCell>
        <mxCell id="BQN_1DTDuwJgb3e3rP3L-80" value="Velocity_solve_semi_implicit()" style="text;strokeColor=none;fillColor=none;align=left;verticalAlign=top;spacingLeft=4;spacingRight=4;overflow=hidden;rotatable=0;points=[[0,0.5],[1,0.5]];portConstraint=eastwest;" parent="BQN_1DTDuwJgb3e3rP3L-76" vertex="1">
          <mxGeometry y="104" width="190" height="26" as="geometry" />
        </mxCell>
        <mxCell id="BQN_1DTDuwJgb3e3rP3L-81" value="P solvers" style="swimlane;fontStyle=0;childLayout=stackLayout;horizontal=1;startSize=26;fillColor=none;horizontalStack=0;resizeParent=1;resizeParentMax=0;resizeLast=0;collapsible=1;marginBottom=0;" parent="Mnvv_WwJ39rHPu0QQhqr-1" vertex="1">
          <mxGeometry x="220" y="780" width="180" height="130" as="geometry" />
        </mxCell>
        <mxCell id="BQN_1DTDuwJgb3e3rP3L-82" value="Pressure_solve_xz_period()" style="text;strokeColor=none;fillColor=none;align=left;verticalAlign=top;spacingLeft=4;spacingRight=4;overflow=hidden;rotatable=0;points=[[0,0.5],[1,0.5]];portConstraint=eastwest;" parent="BQN_1DTDuwJgb3e3rP3L-81" vertex="1">
          <mxGeometry y="26" width="180" height="26" as="geometry" />
        </mxCell>
        <mxCell id="BQN_1DTDuwJgb3e3rP3L-83" value="Pressure_solve_x_period()" style="text;strokeColor=none;fillColor=none;align=left;verticalAlign=top;spacingLeft=4;spacingRight=4;overflow=hidden;rotatable=0;points=[[0,0.5],[1,0.5]];portConstraint=eastwest;" parent="BQN_1DTDuwJgb3e3rP3L-81" vertex="1">
          <mxGeometry y="52" width="180" height="26" as="geometry" />
        </mxCell>
        <mxCell id="BQN_1DTDuwJgb3e3rP3L-84" value="Pressure_solve_z_period()" style="text;strokeColor=none;fillColor=none;align=left;verticalAlign=top;spacingLeft=4;spacingRight=4;overflow=hidden;rotatable=0;points=[[0,0.5],[1,0.5]];portConstraint=eastwest;" parent="BQN_1DTDuwJgb3e3rP3L-81" vertex="1">
          <mxGeometry y="78" width="180" height="26" as="geometry" />
        </mxCell>
        <mxCell id="BQN_1DTDuwJgb3e3rP3L-85" value="Pressure_solve_no_period()" style="text;strokeColor=none;fillColor=none;align=left;verticalAlign=top;spacingLeft=4;spacingRight=4;overflow=hidden;rotatable=0;points=[[0,0.5],[1,0.5]];portConstraint=eastwest;" parent="BQN_1DTDuwJgb3e3rP3L-81" vertex="1">
          <mxGeometry y="104" width="180" height="26" as="geometry" />
        </mxCell>
        <mxCell id="BQN_1DTDuwJgb3e3rP3L-70" value="Temporal_int_all_the_equations()" style="swimlane;fontStyle=0;childLayout=stackLayout;horizontal=1;startSize=26;fillColor=none;horizontalStack=0;resizeParent=1;resizeParentMax=0;resizeLast=0;collapsible=1;marginBottom=0;" parent="Mnvv_WwJ39rHPu0QQhqr-1" vertex="1">
          <mxGeometry x="90" y="610" width="220" height="104" as="geometry" />
        </mxCell>
        <mxCell id="BQN_1DTDuwJgb3e3rP3L-71" value="Solve U" style="text;strokeColor=none;fillColor=none;align=left;verticalAlign=top;spacingLeft=4;spacingRight=4;overflow=hidden;rotatable=0;points=[[0,0.5],[1,0.5]];portConstraint=eastwest;" parent="BQN_1DTDuwJgb3e3rP3L-70" vertex="1">
          <mxGeometry y="26" width="220" height="26" as="geometry" />
        </mxCell>
        <mxCell id="BQN_1DTDuwJgb3e3rP3L-72" value="Solve P" style="text;strokeColor=none;fillColor=none;align=left;verticalAlign=top;spacingLeft=4;spacingRight=4;overflow=hidden;rotatable=0;points=[[0,0.5],[1,0.5]];portConstraint=eastwest;" parent="BQN_1DTDuwJgb3e3rP3L-70" vertex="1">
          <mxGeometry y="52" width="220" height="26" as="geometry" />
        </mxCell>
        <mxCell id="BQN_1DTDuwJgb3e3rP3L-73" value="#ifdef smth: Solve it" style="text;strokeColor=#d79b00;fillColor=#ffe6cc;align=left;verticalAlign=top;spacingLeft=4;spacingRight=4;overflow=hidden;rotatable=0;points=[[0,0.5],[1,0.5]];portConstraint=eastwest;" parent="BQN_1DTDuwJgb3e3rP3L-70" vertex="1">
          <mxGeometry y="78" width="220" height="26" as="geometry" />
        </mxCell>
        <mxCell id="BQN_1DTDuwJgb3e3rP3L-50" value="Temporal_int_rk3()" style="swimlane;fontStyle=0;childLayout=stackLayout;horizontal=1;startSize=26;fillColor=none;horizontalStack=0;resizeParent=1;resizeParentMax=0;resizeLast=0;collapsible=1;marginBottom=0;" parent="Mnvv_WwJ39rHPu0QQhqr-1" vertex="1">
          <mxGeometry x="440" y="230" width="380" height="690" as="geometry">
            <mxRectangle x="450" y="610" width="190" height="26" as="alternateBounds" />
          </mxGeometry>
        </mxCell>
        <mxCell id="BQN_1DTDuwJgb3e3rP3L-51" value="Initialize data" style="text;strokeColor=none;fillColor=none;align=left;verticalAlign=top;spacingLeft=4;spacingRight=4;overflow=hidden;rotatable=0;points=[[0,0.5],[1,0.5]];portConstraint=eastwest;" parent="BQN_1DTDuwJgb3e3rP3L-50" vertex="1">
          <mxGeometry y="26" width="380" height="24" as="geometry" />
        </mxCell>
        <mxCell id="BQN_1DTDuwJgb3e3rP3L-58" value="#ifdef:&#xa;         CONC&#xa;         LES&#xa;         RANS&#xa;         OUTPUT2D&#xa;&#xa;" style="text;strokeColor=#d79b00;fillColor=#ffe6cc;align=left;verticalAlign=top;spacingLeft=4;spacingRight=4;overflow=hidden;rotatable=0;points=[[0,0.5],[1,0.5]];portConstraint=eastwest;" parent="BQN_1DTDuwJgb3e3rP3L-50" vertex="1">
          <mxGeometry y="50" width="380" height="80" as="geometry" />
        </mxCell>
        <mxCell id="BQN_1DTDuwJgb3e3rP3L-59" value="Choose the data source - initial/resumed/prevTimeStep" style="text;strokeColor=none;fillColor=none;align=left;verticalAlign=top;spacingLeft=4;spacingRight=4;overflow=hidden;rotatable=0;points=[[0,0.5],[1,0.5]];portConstraint=eastwest;" parent="BQN_1DTDuwJgb3e3rP3L-50" vertex="1">
          <mxGeometry y="130" width="380" height="20" as="geometry" />
        </mxCell>
        <mxCell id="BQN_1DTDuwJgb3e3rP3L-60" value="&#xa;Calc. velocity in cell center" style="text;strokeColor=none;fillColor=none;align=left;verticalAlign=top;spacingLeft=4;spacingRight=4;overflow=hidden;rotatable=0;points=[[0,0.5],[1,0.5]];portConstraint=eastwest;" parent="BQN_1DTDuwJgb3e3rP3L-50" vertex="1">
          <mxGeometry y="150" width="380" height="50" as="geometry" />
        </mxCell>
        <mxCell id="BQN_1DTDuwJgb3e3rP3L-61" value="#ifdef:&#xa;         VAR_VISC&#xa;         CONC&#xa;         LAG_PARTICLE_RESOLVED&#xa;         OUTPUT2D&#xa;" style="text;strokeColor=#d79b00;fillColor=#ffe6cc;align=left;verticalAlign=top;spacingLeft=4;spacingRight=4;overflow=hidden;rotatable=0;points=[[0,0.5],[1,0.5]];portConstraint=eastwest;" parent="BQN_1DTDuwJgb3e3rP3L-50" vertex="1">
          <mxGeometry y="200" width="380" height="80" as="geometry" />
        </mxCell>
        <mxCell id="BQN_1DTDuwJgb3e3rP3L-88" value="Time stepping" style="text;strokeColor=none;fillColor=none;align=left;verticalAlign=top;spacingLeft=4;spacingRight=4;overflow=hidden;rotatable=0;points=[[0,0.5],[1,0.5]];portConstraint=eastwest;" parent="BQN_1DTDuwJgb3e3rP3L-50" vertex="1">
          <mxGeometry y="280" width="380" height="30" as="geometry" />
        </mxCell>
        <mxCell id="BQN_1DTDuwJgb3e3rP3L-156" value="         #ifdef&#xa;              LAG_PARTICLE_RESOLVED&#xa;              OUTPUT2D&#xa;              RANS" style="text;strokeColor=#d79b00;fillColor=#ffe6cc;align=left;verticalAlign=top;spacingLeft=4;spacingRight=4;overflow=hidden;rotatable=0;points=[[0,0.5],[1,0.5]];portConstraint=eastwest;" parent="BQN_1DTDuwJgb3e3rP3L-50" vertex="1">
          <mxGeometry y="310" width="380" height="70" as="geometry" />
        </mxCell>
        <mxCell id="BQN_1DTDuwJgb3e3rP3L-157" value="         Boundary Conditions" style="text;strokeColor=none;fillColor=none;align=left;verticalAlign=top;spacingLeft=4;spacingRight=4;overflow=hidden;rotatable=0;points=[[0,0.5],[1,0.5]];portConstraint=eastwest;" parent="BQN_1DTDuwJgb3e3rP3L-50" vertex="1">
          <mxGeometry y="380" width="380" height="30" as="geometry" />
        </mxCell>
        <mxCell id="BQN_1DTDuwJgb3e3rP3L-160" value="         #ifdef&#xa;              LEFT_INFLOW or RIGHT_INFLOW&#xa;              LEFT_OUTFLOW or RIGHT_OUTFLOW" style="text;strokeColor=#d79b00;fillColor=#ffe6cc;align=left;verticalAlign=top;spacingLeft=4;spacingRight=4;overflow=hidden;rotatable=0;points=[[0,0.5],[1,0.5]];portConstraint=eastwest;" parent="BQN_1DTDuwJgb3e3rP3L-50" vertex="1">
          <mxGeometry y="410" width="380" height="50" as="geometry" />
        </mxCell>
        <mxCell id="BQN_1DTDuwJgb3e3rP3L-159" value="         if(rk == 0): Calc. velocity in cell center" style="text;strokeColor=none;fillColor=none;align=left;verticalAlign=top;spacingLeft=4;spacingRight=4;overflow=hidden;rotatable=0;points=[[0,0.5],[1,0.5]];portConstraint=eastwest;" parent="BQN_1DTDuwJgb3e3rP3L-50" vertex="1">
          <mxGeometry y="460" width="380" height="30" as="geometry" />
        </mxCell>
        <mxCell id="BQN_1DTDuwJgb3e3rP3L-158" value="         #ifdef RANS" style="text;strokeColor=#d79b00;fillColor=#ffe6cc;align=left;verticalAlign=top;spacingLeft=4;spacingRight=4;overflow=hidden;rotatable=0;points=[[0,0.5],[1,0.5]];portConstraint=eastwest;" parent="BQN_1DTDuwJgb3e3rP3L-50" vertex="1">
          <mxGeometry y="490" width="380" height="30" as="geometry" />
        </mxCell>
        <mxCell id="BQN_1DTDuwJgb3e3rP3L-161" value="         Integration of u,v, conc" style="text;strokeColor=none;fillColor=none;align=left;verticalAlign=top;spacingLeft=4;spacingRight=4;overflow=hidden;rotatable=0;points=[[0,0.5],[1,0.5]];portConstraint=eastwest;" parent="BQN_1DTDuwJgb3e3rP3L-50" vertex="1">
          <mxGeometry y="520" width="380" height="30" as="geometry" />
        </mxCell>
        <mxCell id="BQN_1DTDuwJgb3e3rP3L-162" value="         #ifdef&#xa;              CONSTANT_MASSFLUX&#xa;              LES" style="text;strokeColor=#d79b00;fillColor=#ffe6cc;align=left;verticalAlign=top;spacingLeft=4;spacingRight=4;overflow=hidden;rotatable=0;points=[[0,0.5],[1,0.5]];portConstraint=eastwest;" parent="BQN_1DTDuwJgb3e3rP3L-50" vertex="1">
          <mxGeometry y="550" width="380" height="50" as="geometry" />
        </mxCell>
        <mxCell id="BQN_1DTDuwJgb3e3rP3L-163" value="         Update time&#xa;         Read stop file" style="text;strokeColor=none;fillColor=none;align=left;verticalAlign=top;spacingLeft=4;spacingRight=4;overflow=hidden;rotatable=0;points=[[0,0.5],[1,0.5]];portConstraint=eastwest;" parent="BQN_1DTDuwJgb3e3rP3L-50" vertex="1">
          <mxGeometry y="600" width="380" height="40" as="geometry" />
        </mxCell>
        <mxCell id="BQN_1DTDuwJgb3e3rP3L-164" value="         #ifdef&#xa;              OUTPUT2D&#xa;              LAG_PARTICLE_RESOLVED" style="text;strokeColor=#d79b00;fillColor=#ffe6cc;align=left;verticalAlign=top;spacingLeft=4;spacingRight=4;overflow=hidden;rotatable=0;points=[[0,0.5],[1,0.5]];portConstraint=eastwest;" parent="BQN_1DTDuwJgb3e3rP3L-50" vertex="1">
          <mxGeometry y="640" width="380" height="50" as="geometry" />
        </mxCell>
        <mxCell id="BQN_1DTDuwJgb3e3rP3L-62" value="Velocity_cell_center()" style="swimlane;fontStyle=0;childLayout=stackLayout;horizontal=1;startSize=26;fillColor=none;horizontalStack=0;resizeParent=1;resizeParentMax=0;resizeLast=0;collapsible=1;marginBottom=0;" parent="Mnvv_WwJ39rHPu0QQhqr-1" vertex="1">
          <mxGeometry x="170" y="420" width="140" height="78" as="geometry" />
        </mxCell>
        <mxCell id="BQN_1DTDuwJgb3e3rP3L-63" value=" " style="text;strokeColor=none;fillColor=none;align=left;verticalAlign=top;spacingLeft=4;spacingRight=4;overflow=hidden;rotatable=0;points=[[0,0.5],[1,0.5]];portConstraint=eastwest;" parent="BQN_1DTDuwJgb3e3rP3L-62" vertex="1">
          <mxGeometry y="26" width="140" height="26" as="geometry" />
        </mxCell>
        <mxCell id="BQN_1DTDuwJgb3e3rP3L-64" value=" " style="text;strokeColor=none;fillColor=none;align=left;verticalAlign=top;spacingLeft=4;spacingRight=4;overflow=hidden;rotatable=0;points=[[0,0.5],[1,0.5]];portConstraint=eastwest;" parent="BQN_1DTDuwJgb3e3rP3L-62" vertex="1">
          <mxGeometry y="52" width="140" height="26" as="geometry" />
        </mxCell>
        <mxCell id="BQN_1DTDuwJgb3e3rP3L-43" value="lsolver_transpose_setup();" style="swimlane;fontStyle=0;childLayout=stackLayout;horizontal=1;startSize=26;fillColor=none;horizontalStack=0;resizeParent=1;resizeParentMax=0;resizeLast=0;collapsible=1;marginBottom=0;" parent="Mnvv_WwJ39rHPu0QQhqr-1" vertex="1">
          <mxGeometry x="1295" y="850" width="380" height="52" as="geometry" />
        </mxCell>
        <mxCell id="BQN_1DTDuwJgb3e3rP3L-44" value="???" style="text;strokeColor=none;fillColor=none;align=left;verticalAlign=top;spacingLeft=4;spacingRight=4;overflow=hidden;rotatable=0;points=[[0,0.5],[1,0.5]];portConstraint=eastwest;" parent="BQN_1DTDuwJgb3e3rP3L-43" vertex="1">
          <mxGeometry y="26" width="380" height="26" as="geometry" />
        </mxCell>
        <mxCell id="BQN_1DTDuwJgb3e3rP3L-38" value="Cart3d_setup_lsys_accounting_geometry();" style="swimlane;fontStyle=0;childLayout=stackLayout;horizontal=1;startSize=26;fillColor=none;horizontalStack=0;resizeParent=1;resizeParentMax=0;resizeLast=0;collapsible=1;marginBottom=0;" parent="Mnvv_WwJ39rHPu0QQhqr-1" vertex="1">
          <mxGeometry x="1295" y="710" width="380" height="120" as="geometry" />
        </mxCell>
        <mxCell id="BQN_1DTDuwJgb3e3rP3L-39" value="Velocity_setup_lsys_accounting_geometry()&#xa;" style="text;strokeColor=none;fillColor=none;align=left;verticalAlign=top;spacingLeft=4;spacingRight=4;overflow=hidden;rotatable=0;points=[[0,0.5],[1,0.5]];portConstraint=eastwest;" parent="BQN_1DTDuwJgb3e3rP3L-38" vertex="1">
          <mxGeometry y="26" width="380" height="26" as="geometry" />
        </mxCell>
        <mxCell id="BQN_1DTDuwJgb3e3rP3L-40" value="Pressure_setup_lsys_accounting_geometry()" style="text;strokeColor=none;fillColor=none;align=left;verticalAlign=top;spacingLeft=4;spacingRight=4;overflow=hidden;rotatable=0;points=[[0,0.5],[1,0.5]];portConstraint=eastwest;" parent="BQN_1DTDuwJgb3e3rP3L-38" vertex="1">
          <mxGeometry y="52" width="380" height="26" as="geometry" />
        </mxCell>
        <mxCell id="BQN_1DTDuwJgb3e3rP3L-41" value="#ifdef CONC:&#xa;               Conc_setup_lsys_accounting_geometry" style="text;strokeColor=#d79b00;fillColor=#ffe6cc;align=left;verticalAlign=top;spacingLeft=4;spacingRight=4;overflow=hidden;rotatable=0;points=[[0,0.5],[1,0.5]];portConstraint=eastwest;" parent="BQN_1DTDuwJgb3e3rP3L-38" vertex="1">
          <mxGeometry y="78" width="380" height="42" as="geometry" />
        </mxCell>
        <mxCell id="Mnvv_WwJ39rHPu0QQhqr-9" value="#ifdef directives" style="swimlane;fillColor=#ffe6cc;strokeColor=#d79b00;" parent="Mnvv_WwJ39rHPu0QQhqr-1" vertex="1">
          <mxGeometry x="892.5" y="290" width="225" height="210" as="geometry" />
        </mxCell>
        <mxCell id="Mnvv_WwJ39rHPu0QQhqr-10" value="CONC" style="rounded=1;whiteSpace=wrap;html=1;fillColor=#ffe6cc;strokeColor=#d79b00;" parent="Mnvv_WwJ39rHPu0QQhqr-9" vertex="1">
          <mxGeometry x="20" y="30" width="50" height="20" as="geometry" />
        </mxCell>
        <mxCell id="Mnvv_WwJ39rHPu0QQhqr-11" value="LAG_PARTICLE_RESOLVED" style="rounded=1;whiteSpace=wrap;html=1;fillColor=#ffe6cc;strokeColor=#d79b00;" parent="Mnvv_WwJ39rHPu0QQhqr-9" vertex="1">
          <mxGeometry x="20" y="60" width="180" height="20" as="geometry" />
        </mxCell>
        <mxCell id="Mnvv_WwJ39rHPu0QQhqr-12" value="OUTPUT2D" style="rounded=1;whiteSpace=wrap;html=1;fillColor=#ffe6cc;strokeColor=#d79b00;" parent="Mnvv_WwJ39rHPu0QQhqr-9" vertex="1">
          <mxGeometry x="20" y="90" width="80" height="20" as="geometry" />
        </mxCell>
        <mxCell id="Mnvv_WwJ39rHPu0QQhqr-14" value="LES" style="rounded=1;whiteSpace=wrap;html=1;fillColor=#ffe6cc;strokeColor=#d79b00;" parent="Mnvv_WwJ39rHPu0QQhqr-9" vertex="1">
          <mxGeometry x="20" y="120" width="50" height="20" as="geometry" />
        </mxCell>
        <mxCell id="Mnvv_WwJ39rHPu0QQhqr-13" value="RANS" style="rounded=1;whiteSpace=wrap;html=1;fillColor=#ffe6cc;strokeColor=#d79b00;" parent="Mnvv_WwJ39rHPu0QQhqr-9" vertex="1">
          <mxGeometry x="20" y="150" width="50" height="20" as="geometry" />
        </mxCell>
        <mxCell id="Mnvv_WwJ39rHPu0QQhqr-17" value="TURB_FORCING" style="rounded=1;whiteSpace=wrap;html=1;fillColor=#ffe6cc;strokeColor=#d79b00;" parent="Mnvv_WwJ39rHPu0QQhqr-9" vertex="1">
          <mxGeometry x="20" y="180" width="120" height="20" as="geometry" />
        </mxCell>
        <mxCell id="Mnvv_WwJ39rHPu0QQhqr-36" value="if &quot;resume&quot; fetch previous data" style="rounded=1;whiteSpace=wrap;html=1;" parent="Mnvv_WwJ39rHPu0QQhqr-1" vertex="1">
          <mxGeometry x="945" y="510" width="120" height="60" as="geometry" />
        </mxCell>
        <mxCell id="BQN_1DTDuwJgb3e3rP3L-1" value="#ifdef directives" style="swimlane;fillColor=#ffe6cc;strokeColor=#d79b00;" parent="Mnvv_WwJ39rHPu0QQhqr-1" vertex="1">
          <mxGeometry x="870" y="580" width="270" height="170" as="geometry" />
        </mxCell>
        <mxCell id="BQN_1DTDuwJgb3e3rP3L-2" value="IMMERSED_BOUNDARY" style="rounded=1;whiteSpace=wrap;html=1;fillColor=#ffe6cc;strokeColor=#d79b00;" parent="BQN_1DTDuwJgb3e3rP3L-1" vertex="1">
          <mxGeometry x="15" y="80" width="170" height="20" as="geometry" />
        </mxCell>
        <mxCell id="BQN_1DTDuwJgb3e3rP3L-3" value="LAG_PARTICLE_RESOLVED" style="rounded=1;whiteSpace=wrap;html=1;fillColor=#ffe6cc;strokeColor=#d79b00;" parent="BQN_1DTDuwJgb3e3rP3L-1" vertex="1">
          <mxGeometry x="15" y="50" width="180" height="20" as="geometry" />
        </mxCell>
        <mxCell id="Mnvv_WwJ39rHPu0QQhqr-21" value="CONSTANT_MASSFLUX" style="rounded=1;whiteSpace=wrap;html=1;fillColor=#ffe6cc;strokeColor=#d79b00;" parent="BQN_1DTDuwJgb3e3rP3L-1" vertex="1">
          <mxGeometry x="15" y="110" width="160" height="20" as="geometry" />
        </mxCell>
        <mxCell id="BQN_1DTDuwJgb3e3rP3L-4" value="IMMERSED_BOUNDARY" style="rounded=1;whiteSpace=wrap;html=1;fillColor=#ffe6cc;strokeColor=#d79b00;" parent="BQN_1DTDuwJgb3e3rP3L-1" vertex="1">
          <mxGeometry x="15" y="140" width="170" height="20" as="geometry" />
        </mxCell>
        <mxCell id="BQN_1DTDuwJgb3e3rP3L-52" style="edgeStyle=orthogonalEdgeStyle;rounded=0;orthogonalLoop=1;jettySize=auto;html=1;entryX=0;entryY=0.5;entryDx=0;entryDy=0;" parent="Mnvv_WwJ39rHPu0QQhqr-1" source="BQN_1DTDuwJgb3e3rP3L-50" target="BQN_1DTDuwJgb3e3rP3L-47" edge="1">
          <mxGeometry relative="1" as="geometry">
            <Array as="points">
              <mxPoint x="850" y="575" />
              <mxPoint x="850" y="856" />
            </Array>
          </mxGeometry>
        </mxCell>
        <mxCell id="BQN_1DTDuwJgb3e3rP3L-5" value="Setup linear system" style="rounded=1;whiteSpace=wrap;html=1;" parent="Mnvv_WwJ39rHPu0QQhqr-1" vertex="1">
          <mxGeometry x="945" y="760" width="120" height="30" as="geometry" />
        </mxCell>
        <mxCell id="BQN_1DTDuwJgb3e3rP3L-6" value="Setup solver" style="rounded=1;whiteSpace=wrap;html=1;" parent="Mnvv_WwJ39rHPu0QQhqr-1" vertex="1">
          <mxGeometry x="945" y="800" width="120" height="30" as="geometry" />
        </mxCell>
        <mxCell id="BQN_1DTDuwJgb3e3rP3L-48" style="edgeStyle=orthogonalEdgeStyle;rounded=0;orthogonalLoop=1;jettySize=auto;html=1;entryX=1;entryY=0.5;entryDx=0;entryDy=0;" parent="Mnvv_WwJ39rHPu0QQhqr-1" source="BQN_1DTDuwJgb3e3rP3L-43" target="BQN_1DTDuwJgb3e3rP3L-6" edge="1">
          <mxGeometry relative="1" as="geometry" />
        </mxCell>
        <mxCell id="BQN_1DTDuwJgb3e3rP3L-74" style="edgeStyle=orthogonalEdgeStyle;rounded=0;orthogonalLoop=1;jettySize=auto;html=1;entryX=0;entryY=0.5;entryDx=0;entryDy=0;" parent="Mnvv_WwJ39rHPu0QQhqr-1" source="BQN_1DTDuwJgb3e3rP3L-70" target="BQN_1DTDuwJgb3e3rP3L-161" edge="1">
          <mxGeometry relative="1" as="geometry">
            <mxPoint x="417" y="700" as="targetPoint" />
          </mxGeometry>
        </mxCell>
        <mxCell id="BQN_1DTDuwJgb3e3rP3L-7" value="End of procedure" style="swimlane;" parent="Mnvv_WwJ39rHPu0QQhqr-1" vertex="1">
          <mxGeometry x="920" y="880" width="170" height="200" as="geometry" />
        </mxCell>
        <mxCell id="BQN_1DTDuwJgb3e3rP3L-8" value="Delete fields" style="rounded=1;whiteSpace=wrap;html=1;" parent="BQN_1DTDuwJgb3e3rP3L-7" vertex="1">
          <mxGeometry x="25" y="80" width="120" height="30" as="geometry" />
        </mxCell>
        <mxCell id="BQN_1DTDuwJgb3e3rP3L-34" value="Delete timer" style="rounded=1;whiteSpace=wrap;html=1;" parent="BQN_1DTDuwJgb3e3rP3L-7" vertex="1">
          <mxGeometry x="25" y="120" width="120" height="30" as="geometry" />
        </mxCell>
        <mxCell id="BQN_1DTDuwJgb3e3rP3L-35" value="Delete grid" style="rounded=1;whiteSpace=wrap;html=1;" parent="BQN_1DTDuwJgb3e3rP3L-7" vertex="1">
          <mxGeometry x="25" y="160" width="120" height="30" as="geometry" />
        </mxCell>
        <mxCell id="BQN_1DTDuwJgb3e3rP3L-165" value="Delete additional fields" style="rounded=1;whiteSpace=wrap;html=1;fillColor=#ffe6cc;strokeColor=#d79b00;" parent="BQN_1DTDuwJgb3e3rP3L-7" vertex="1">
          <mxGeometry x="25" y="30" width="120" height="40" as="geometry" />
        </mxCell>
        <mxCell id="BQN_1DTDuwJgb3e3rP3L-42" style="edgeStyle=orthogonalEdgeStyle;rounded=0;orthogonalLoop=1;jettySize=auto;html=1;entryX=1;entryY=0.5;entryDx=0;entryDy=0;" parent="Mnvv_WwJ39rHPu0QQhqr-1" source="BQN_1DTDuwJgb3e3rP3L-40" target="BQN_1DTDuwJgb3e3rP3L-5" edge="1">
          <mxGeometry relative="1" as="geometry" />
        </mxCell>
        <mxCell id="BQN_1DTDuwJgb3e3rP3L-47" value="Solve" style="rounded=1;whiteSpace=wrap;html=1;" parent="Mnvv_WwJ39rHPu0QQhqr-1" vertex="1">
          <mxGeometry x="945" y="842" width="120" height="28" as="geometry" />
        </mxCell>
        <mxCell id="BQN_1DTDuwJgb3e3rP3L-66" style="edgeStyle=orthogonalEdgeStyle;rounded=0;orthogonalLoop=1;jettySize=auto;html=1;" parent="Mnvv_WwJ39rHPu0QQhqr-1" source="BQN_1DTDuwJgb3e3rP3L-63" target="BQN_1DTDuwJgb3e3rP3L-60" edge="1">
          <mxGeometry relative="1" as="geometry" />
        </mxCell>
        <mxCell id="BQN_1DTDuwJgb3e3rP3L-75" style="edgeStyle=orthogonalEdgeStyle;rounded=0;orthogonalLoop=1;jettySize=auto;html=1;" parent="Mnvv_WwJ39rHPu0QQhqr-1" source="BQN_1DTDuwJgb3e3rP3L-64" target="BQN_1DTDuwJgb3e3rP3L-159" edge="1">
          <mxGeometry relative="1" as="geometry" />
        </mxCell>
        <mxCell id="BQN_1DTDuwJgb3e3rP3L-87" style="edgeStyle=orthogonalEdgeStyle;rounded=0;orthogonalLoop=1;jettySize=auto;html=1;entryX=1;entryY=0.5;entryDx=0;entryDy=0;" parent="Mnvv_WwJ39rHPu0QQhqr-1" source="BQN_1DTDuwJgb3e3rP3L-81" target="BQN_1DTDuwJgb3e3rP3L-72" edge="1">
          <mxGeometry relative="1" as="geometry" />
        </mxCell>
        <mxCell id="BQN_1DTDuwJgb3e3rP3L-86" style="edgeStyle=orthogonalEdgeStyle;rounded=0;orthogonalLoop=1;jettySize=auto;html=1;" parent="Mnvv_WwJ39rHPu0QQhqr-1" source="BQN_1DTDuwJgb3e3rP3L-76" target="BQN_1DTDuwJgb3e3rP3L-71" edge="1">
          <mxGeometry relative="1" as="geometry" />
        </mxCell>
        <mxCell id="ybUe9dVBp182NsWoZHfQ-1" value="Velocity.c" style="swimlane;" parent="1" vertex="1">
          <mxGeometry y="1170" width="265" height="400" as="geometry" />
        </mxCell>
        <mxCell id="ybUe9dVBp182NsWoZHfQ-2" value="Velocity_create()" style="swimlane;fontStyle=0;childLayout=stackLayout;horizontal=1;startSize=26;fillColor=none;horizontalStack=0;resizeParent=1;resizeParentMax=0;resizeLast=0;collapsible=1;marginBottom=0;" parent="ybUe9dVBp182NsWoZHfQ-1" vertex="1">
          <mxGeometry x="62.5" y="33" width="140" height="52" as="geometry" />
        </mxCell>
        <mxCell id="ybUe9dVBp182NsWoZHfQ-3" value=" " style="text;strokeColor=none;fillColor=none;align=left;verticalAlign=top;spacingLeft=4;spacingRight=4;overflow=hidden;rotatable=0;points=[[0,0.5],[1,0.5]];portConstraint=eastwest;" parent="ybUe9dVBp182NsWoZHfQ-2" vertex="1">
          <mxGeometry y="26" width="140" height="26" as="geometry" />
        </mxCell>
        <mxCell id="ybUe9dVBp182NsWoZHfQ-22" value="Velocity_u,v,w_set_RHS()" style="swimlane;fontStyle=0;childLayout=stackLayout;horizontal=1;startSize=26;fillColor=none;horizontalStack=0;resizeParent=1;resizeParentMax=0;resizeLast=0;collapsible=1;marginBottom=0;" parent="ybUe9dVBp182NsWoZHfQ-1" vertex="1">
          <mxGeometry x="48.75" y="275" width="167.5" height="52" as="geometry" />
        </mxCell>
        <mxCell id="ybUe9dVBp182NsWoZHfQ-23" value=" " style="text;strokeColor=none;fillColor=none;align=left;verticalAlign=top;spacingLeft=4;spacingRight=4;overflow=hidden;rotatable=0;points=[[0,0.5],[1,0.5]];portConstraint=eastwest;" parent="ybUe9dVBp182NsWoZHfQ-22" vertex="1">
          <mxGeometry y="26" width="167.5" height="26" as="geometry" />
        </mxCell>
        <mxCell id="ybUe9dVBp182NsWoZHfQ-10" value="Velocity_u,v,w_set_implicit_explicit()" style="swimlane;fontStyle=0;childLayout=stackLayout;horizontal=1;startSize=26;fillColor=none;horizontalStack=0;resizeParent=1;resizeParentMax=0;resizeLast=0;collapsible=1;marginBottom=0;" parent="ybUe9dVBp182NsWoZHfQ-1" vertex="1">
          <mxGeometry x="18.130000000000003" y="215" width="228.75" height="52" as="geometry" />
        </mxCell>
        <mxCell id="ybUe9dVBp182NsWoZHfQ-11" value=" " style="text;strokeColor=none;fillColor=none;align=left;verticalAlign=top;spacingLeft=4;spacingRight=4;overflow=hidden;rotatable=0;points=[[0,0.5],[1,0.5]];portConstraint=eastwest;" parent="ybUe9dVBp182NsWoZHfQ-10" vertex="1">
          <mxGeometry y="26" width="228.75" height="26" as="geometry" />
        </mxCell>
        <mxCell id="ybUe9dVBp182NsWoZHfQ-6" value="Velocity_destroy()" style="swimlane;fontStyle=0;childLayout=stackLayout;horizontal=1;startSize=26;fillColor=none;horizontalStack=0;resizeParent=1;resizeParentMax=0;resizeLast=0;collapsible=1;marginBottom=0;" parent="ybUe9dVBp182NsWoZHfQ-1" vertex="1">
          <mxGeometry x="62.5" y="93" width="140" height="52" as="geometry" />
        </mxCell>
        <mxCell id="ybUe9dVBp182NsWoZHfQ-7" value=" " style="text;strokeColor=none;fillColor=none;align=left;verticalAlign=top;spacingLeft=4;spacingRight=4;overflow=hidden;rotatable=0;points=[[0,0.5],[1,0.5]];portConstraint=eastwest;" parent="ybUe9dVBp182NsWoZHfQ-6" vertex="1">
          <mxGeometry y="26" width="140" height="26" as="geometry" />
        </mxCell>
        <mxCell id="ybUe9dVBp182NsWoZHfQ-8" value="Velocity_cell_center()" style="swimlane;fontStyle=0;childLayout=stackLayout;horizontal=1;startSize=26;fillColor=none;horizontalStack=0;resizeParent=1;resizeParentMax=0;resizeLast=0;collapsible=1;marginBottom=0;" parent="ybUe9dVBp182NsWoZHfQ-1" vertex="1">
          <mxGeometry x="62.5" y="155" width="140" height="52" as="geometry" />
        </mxCell>
        <mxCell id="ybUe9dVBp182NsWoZHfQ-9" value=" " style="text;strokeColor=none;fillColor=none;align=left;verticalAlign=top;spacingLeft=4;spacingRight=4;overflow=hidden;rotatable=0;points=[[0,0.5],[1,0.5]];portConstraint=eastwest;" parent="ybUe9dVBp182NsWoZHfQ-8" vertex="1">
          <mxGeometry y="26" width="140" height="26" as="geometry" />
        </mxCell>
        <mxCell id="ybUe9dVBp182NsWoZHfQ-115" value="Velocity_update_boundaries()" style="swimlane;fontStyle=0;childLayout=stackLayout;horizontal=1;startSize=26;fillColor=none;horizontalStack=0;resizeParent=1;resizeParentMax=0;resizeLast=0;collapsible=1;marginBottom=0;" parent="ybUe9dVBp182NsWoZHfQ-1" vertex="1">
          <mxGeometry x="34.38" y="334" width="196.25" height="52" as="geometry" />
        </mxCell>
        <mxCell id="ybUe9dVBp182NsWoZHfQ-116" value=" " style="text;strokeColor=none;fillColor=none;align=left;verticalAlign=top;spacingLeft=4;spacingRight=4;overflow=hidden;rotatable=0;points=[[0,0.5],[1,0.5]];portConstraint=eastwest;" parent="ybUe9dVBp182NsWoZHfQ-115" vertex="1">
          <mxGeometry y="26" width="196.25" height="26" as="geometry" />
        </mxCell>
        <mxCell id="ybUe9dVBp182NsWoZHfQ-12" value="Pressure.c" style="swimlane;" parent="1" vertex="1">
          <mxGeometry x="290" y="1170" width="265" height="340" as="geometry" />
        </mxCell>
        <mxCell id="ybUe9dVBp182NsWoZHfQ-14" value="Presure_create()" style="swimlane;fontStyle=0;childLayout=stackLayout;horizontal=1;startSize=26;fillColor=none;horizontalStack=0;resizeParent=1;resizeParentMax=0;resizeLast=0;collapsible=1;marginBottom=0;" parent="ybUe9dVBp182NsWoZHfQ-12" vertex="1">
          <mxGeometry x="55" y="34" width="140" height="52" as="geometry" />
        </mxCell>
        <mxCell id="ybUe9dVBp182NsWoZHfQ-15" value=" " style="text;strokeColor=none;fillColor=none;align=left;verticalAlign=top;spacingLeft=4;spacingRight=4;overflow=hidden;rotatable=0;points=[[0,0.5],[1,0.5]];portConstraint=eastwest;" parent="ybUe9dVBp182NsWoZHfQ-14" vertex="1">
          <mxGeometry y="26" width="140" height="26" as="geometry" />
        </mxCell>
        <mxCell id="ybUe9dVBp182NsWoZHfQ-16" value="Pressure_destroy()" style="swimlane;fontStyle=0;childLayout=stackLayout;horizontal=1;startSize=26;fillColor=none;horizontalStack=0;resizeParent=1;resizeParentMax=0;resizeLast=0;collapsible=1;marginBottom=0;" parent="ybUe9dVBp182NsWoZHfQ-12" vertex="1">
          <mxGeometry x="55" y="98" width="140" height="52" as="geometry" />
        </mxCell>
        <mxCell id="ybUe9dVBp182NsWoZHfQ-17" value=" " style="text;strokeColor=none;fillColor=none;align=left;verticalAlign=top;spacingLeft=4;spacingRight=4;overflow=hidden;rotatable=0;points=[[0,0.5],[1,0.5]];portConstraint=eastwest;" parent="ybUe9dVBp182NsWoZHfQ-16" vertex="1">
          <mxGeometry y="26" width="140" height="26" as="geometry" />
        </mxCell>
        <mxCell id="ybUe9dVBp182NsWoZHfQ-18" value="Pressure_project_velocity()" style="swimlane;fontStyle=0;childLayout=stackLayout;horizontal=1;startSize=26;fillColor=none;horizontalStack=0;resizeParent=1;resizeParentMax=0;resizeLast=0;collapsible=1;marginBottom=0;" parent="ybUe9dVBp182NsWoZHfQ-12" vertex="1">
          <mxGeometry x="32.5" y="158" width="185" height="52" as="geometry" />
        </mxCell>
        <mxCell id="ybUe9dVBp182NsWoZHfQ-19" value=" " style="text;strokeColor=none;fillColor=none;align=left;verticalAlign=top;spacingLeft=4;spacingRight=4;overflow=hidden;rotatable=0;points=[[0,0.5],[1,0.5]];portConstraint=eastwest;" parent="ybUe9dVBp182NsWoZHfQ-18" vertex="1">
          <mxGeometry y="26" width="185" height="26" as="geometry" />
        </mxCell>
        <mxCell id="ybUe9dVBp182NsWoZHfQ-20" value="Pressure_compute_velocity_divergence()" style="swimlane;fontStyle=0;childLayout=stackLayout;horizontal=1;startSize=26;fillColor=none;horizontalStack=0;resizeParent=1;resizeParentMax=0;resizeLast=0;collapsible=1;marginBottom=0;" parent="ybUe9dVBp182NsWoZHfQ-12" vertex="1">
          <mxGeometry x="3.75" y="220" width="257.5" height="52" as="geometry" />
        </mxCell>
        <mxCell id="ybUe9dVBp182NsWoZHfQ-21" value=" " style="text;strokeColor=none;fillColor=none;align=left;verticalAlign=top;spacingLeft=4;spacingRight=4;overflow=hidden;rotatable=0;points=[[0,0.5],[1,0.5]];portConstraint=eastwest;" parent="ybUe9dVBp182NsWoZHfQ-20" vertex="1">
          <mxGeometry y="26" width="257.5" height="26" as="geometry" />
        </mxCell>
        <mxCell id="ybUe9dVBp182NsWoZHfQ-24" value="Pressure_set_RHS()" style="swimlane;fontStyle=0;childLayout=stackLayout;horizontal=1;startSize=26;fillColor=none;horizontalStack=0;resizeParent=1;resizeParentMax=0;resizeLast=0;collapsible=1;marginBottom=0;" parent="ybUe9dVBp182NsWoZHfQ-12" vertex="1">
          <mxGeometry x="48.75" y="280" width="167.5" height="52" as="geometry" />
        </mxCell>
        <mxCell id="ybUe9dVBp182NsWoZHfQ-25" value=" " style="text;strokeColor=none;fillColor=none;align=left;verticalAlign=top;spacingLeft=4;spacingRight=4;overflow=hidden;rotatable=0;points=[[0,0.5],[1,0.5]];portConstraint=eastwest;" parent="ybUe9dVBp182NsWoZHfQ-24" vertex="1">
          <mxGeometry y="26" width="167.5" height="26" as="geometry" />
        </mxCell>
        <mxCell id="ybUe9dVBp182NsWoZHfQ-28" value="Cart3D.c" style="swimlane;fillColor=#dae8fc;strokeWidth=4;strokeColor=#6c8ebf;swimlaneFillColor=none;" parent="1" vertex="1">
          <mxGeometry x="-850" y="1100" width="760" height="800" as="geometry" />
        </mxCell>
        <mxCell id="ybUe9dVBp182NsWoZHfQ-29" value="Initialize variables" style="rounded=1;whiteSpace=wrap;html=1;" parent="ybUe9dVBp182NsWoZHfQ-28" vertex="1">
          <mxGeometry x="525" y="40" width="120" height="20" as="geometry" />
        </mxCell>
        <mxCell id="RW9D-tz8_o3N0sdUtWzn-16" style="edgeStyle=orthogonalEdgeStyle;rounded=0;orthogonalLoop=1;jettySize=auto;html=1;entryX=0;entryY=0.5;entryDx=0;entryDy=0;strokeWidth=2;" edge="1" parent="ybUe9dVBp182NsWoZHfQ-28" source="ybUe9dVBp182NsWoZHfQ-71" target="ybUe9dVBp182NsWoZHfQ-89">
          <mxGeometry relative="1" as="geometry">
            <Array as="points">
              <mxPoint x="440" y="120" />
              <mxPoint x="440" y="340" />
              <mxPoint x="30" y="340" />
              <mxPoint x="30" y="415" />
            </Array>
          </mxGeometry>
        </mxCell>
        <mxCell id="ybUe9dVBp182NsWoZHfQ-71" value="Cart3d_setup_lsys_accounting_geometry();" style="swimlane;fontStyle=0;childLayout=stackLayout;horizontal=1;startSize=26;fillColor=none;horizontalStack=0;resizeParent=1;resizeParentMax=0;resizeLast=0;collapsible=1;marginBottom=0;" parent="ybUe9dVBp182NsWoZHfQ-28" vertex="1">
          <mxGeometry x="20" y="60" width="380" height="120" as="geometry">
            <mxRectangle x="440" y="50" width="290" height="26" as="alternateBounds" />
          </mxGeometry>
        </mxCell>
        <mxCell id="ybUe9dVBp182NsWoZHfQ-72" value="Velocity_setup_lsys_accounting_geometry()&#xa;" style="text;strokeColor=none;fillColor=none;align=left;verticalAlign=top;spacingLeft=4;spacingRight=4;overflow=hidden;rotatable=0;points=[[0,0.5],[1,0.5]];portConstraint=eastwest;" parent="ybUe9dVBp182NsWoZHfQ-71" vertex="1">
          <mxGeometry y="26" width="380" height="26" as="geometry" />
        </mxCell>
        <mxCell id="ybUe9dVBp182NsWoZHfQ-73" value="Pressure_setup_lsys_accounting_geometry()" style="text;strokeColor=none;fillColor=none;align=left;verticalAlign=top;spacingLeft=4;spacingRight=4;overflow=hidden;rotatable=0;points=[[0,0.5],[1,0.5]];portConstraint=eastwest;" parent="ybUe9dVBp182NsWoZHfQ-71" vertex="1">
          <mxGeometry y="52" width="380" height="26" as="geometry" />
        </mxCell>
        <mxCell id="ybUe9dVBp182NsWoZHfQ-74" value="#ifdef CONC:&#xa;               Conc_setup_lsys_accounting_geometry" style="text;strokeColor=#d79b00;fillColor=#ffe6cc;align=left;verticalAlign=top;spacingLeft=4;spacingRight=4;overflow=hidden;rotatable=0;points=[[0,0.5],[1,0.5]];portConstraint=eastwest;" parent="ybUe9dVBp182NsWoZHfQ-71" vertex="1">
          <mxGeometry y="78" width="380" height="42" as="geometry" />
        </mxCell>
        <mxCell id="ybUe9dVBp182NsWoZHfQ-117" value="Cart3d_initialize_primitive_data()" style="swimlane;fontStyle=0;childLayout=stackLayout;horizontal=1;startSize=26;fillColor=none;horizontalStack=0;resizeParent=1;resizeParentMax=0;resizeLast=0;collapsible=1;marginBottom=0;" parent="ybUe9dVBp182NsWoZHfQ-28" vertex="1">
          <mxGeometry x="20" y="200" width="380" height="52" as="geometry">
            <mxRectangle x="480" y="199" width="240" height="26" as="alternateBounds" />
          </mxGeometry>
        </mxCell>
        <mxCell id="ybUe9dVBp182NsWoZHfQ-118" value=" " style="text;strokeColor=none;fillColor=none;align=left;verticalAlign=top;spacingLeft=4;spacingRight=4;overflow=hidden;rotatable=0;points=[[0,0.5],[1,0.5]];portConstraint=eastwest;" parent="ybUe9dVBp182NsWoZHfQ-117" vertex="1">
          <mxGeometry y="26" width="380" height="26" as="geometry" />
        </mxCell>
        <mxCell id="ybUe9dVBp182NsWoZHfQ-119" value="Cart3d_identify_geometry()" style="swimlane;fontStyle=0;childLayout=stackLayout;horizontal=1;startSize=26;fillColor=none;horizontalStack=0;resizeParent=1;resizeParentMax=0;resizeLast=0;collapsible=1;marginBottom=0;" parent="ybUe9dVBp182NsWoZHfQ-28" vertex="1">
          <mxGeometry x="20" y="270" width="380" height="52" as="geometry" />
        </mxCell>
        <mxCell id="ybUe9dVBp182NsWoZHfQ-120" value=" " style="text;strokeColor=none;fillColor=none;align=left;verticalAlign=top;spacingLeft=4;spacingRight=4;overflow=hidden;rotatable=0;points=[[0,0.5],[1,0.5]];portConstraint=eastwest;" parent="ybUe9dVBp182NsWoZHfQ-119" vertex="1">
          <mxGeometry y="26" width="380" height="26" as="geometry" />
        </mxCell>
        <mxCell id="ybUe9dVBp182NsWoZHfQ-30" value="MPI start" style="rounded=1;whiteSpace=wrap;html=1;" parent="ybUe9dVBp182NsWoZHfQ-28" vertex="1">
          <mxGeometry x="525" y="70" width="120" height="20" as="geometry" />
        </mxCell>
        <mxCell id="ybUe9dVBp182NsWoZHfQ-31" value="&lt;div&gt;Initialize Data_bag&lt;/div&gt;" style="rounded=1;whiteSpace=wrap;html=1;" parent="ybUe9dVBp182NsWoZHfQ-28" vertex="1">
          <mxGeometry x="525" y="100" width="120" height="20" as="geometry" />
        </mxCell>
        <mxCell id="ybUe9dVBp182NsWoZHfQ-32" value="&lt;div&gt;Read input parameters&lt;/div&gt;" style="rounded=1;whiteSpace=wrap;html=1;" parent="ybUe9dVBp182NsWoZHfQ-28" vertex="1">
          <mxGeometry x="525" y="130" width="120" height="30" as="geometry" />
        </mxCell>
        <mxCell id="ybUe9dVBp182NsWoZHfQ-33" value="&lt;div&gt;Create Grid&lt;/div&gt;" style="rounded=1;whiteSpace=wrap;html=1;" parent="ybUe9dVBp182NsWoZHfQ-28" vertex="1">
          <mxGeometry x="525" y="170" width="120" height="20" as="geometry" />
        </mxCell>
        <mxCell id="ybUe9dVBp182NsWoZHfQ-34" value="&lt;div&gt;Setup timer&lt;/div&gt;" style="rounded=1;whiteSpace=wrap;html=1;" parent="ybUe9dVBp182NsWoZHfQ-28" vertex="1">
          <mxGeometry x="525" y="200" width="120" height="20" as="geometry" />
        </mxCell>
        <mxCell id="ybUe9dVBp182NsWoZHfQ-35" value="&lt;div&gt;Create:&lt;/div&gt;&lt;div&gt;Velocity&lt;/div&gt;&lt;div&gt;Pressure&lt;/div&gt;&lt;div&gt;Viccosity&lt;br&gt;&lt;/div&gt;" style="rounded=1;whiteSpace=wrap;html=1;" parent="ybUe9dVBp182NsWoZHfQ-28" vertex="1">
          <mxGeometry x="525" y="230" width="120" height="60" as="geometry" />
        </mxCell>
        <mxCell id="ybUe9dVBp182NsWoZHfQ-75" value="#ifdef directives" style="swimlane;fillColor=#ffe6cc;strokeColor=#d79b00;" parent="ybUe9dVBp182NsWoZHfQ-28" vertex="1">
          <mxGeometry x="472.5" y="300" width="225" height="210" as="geometry" />
        </mxCell>
        <mxCell id="ybUe9dVBp182NsWoZHfQ-76" value="CONC" style="rounded=1;whiteSpace=wrap;html=1;fillColor=#ffe6cc;strokeColor=#d79b00;" parent="ybUe9dVBp182NsWoZHfQ-75" vertex="1">
          <mxGeometry x="20" y="30" width="50" height="20" as="geometry" />
        </mxCell>
        <mxCell id="ybUe9dVBp182NsWoZHfQ-77" value="LAG_PARTICLE_RESOLVED" style="rounded=1;whiteSpace=wrap;html=1;fillColor=#ffe6cc;strokeColor=#d79b00;" parent="ybUe9dVBp182NsWoZHfQ-75" vertex="1">
          <mxGeometry x="20" y="60" width="180" height="20" as="geometry" />
        </mxCell>
        <mxCell id="ybUe9dVBp182NsWoZHfQ-78" value="OUTPUT2D" style="rounded=1;whiteSpace=wrap;html=1;fillColor=#ffe6cc;strokeColor=#d79b00;" parent="ybUe9dVBp182NsWoZHfQ-75" vertex="1">
          <mxGeometry x="20" y="90" width="80" height="20" as="geometry" />
        </mxCell>
        <mxCell id="ybUe9dVBp182NsWoZHfQ-79" value="LES" style="rounded=1;whiteSpace=wrap;html=1;fillColor=#ffe6cc;strokeColor=#d79b00;" parent="ybUe9dVBp182NsWoZHfQ-75" vertex="1">
          <mxGeometry x="20" y="120" width="50" height="20" as="geometry" />
        </mxCell>
        <mxCell id="ybUe9dVBp182NsWoZHfQ-80" value="RANS" style="rounded=1;whiteSpace=wrap;html=1;fillColor=#ffe6cc;strokeColor=#d79b00;" parent="ybUe9dVBp182NsWoZHfQ-75" vertex="1">
          <mxGeometry x="20" y="150" width="50" height="20" as="geometry" />
        </mxCell>
        <mxCell id="ybUe9dVBp182NsWoZHfQ-81" value="TURB_FORCING" style="rounded=1;whiteSpace=wrap;html=1;fillColor=#ffe6cc;strokeColor=#d79b00;" parent="ybUe9dVBp182NsWoZHfQ-75" vertex="1">
          <mxGeometry x="20" y="180" width="120" height="20" as="geometry" />
        </mxCell>
        <mxCell id="ybUe9dVBp182NsWoZHfQ-82" value="if &quot;resume&quot; fetch previous data" style="rounded=1;whiteSpace=wrap;html=1;" parent="ybUe9dVBp182NsWoZHfQ-28" vertex="1">
          <mxGeometry x="525" y="520" width="120" height="60" as="geometry" />
        </mxCell>
        <mxCell id="ybUe9dVBp182NsWoZHfQ-186" style="edgeStyle=orthogonalEdgeStyle;rounded=0;orthogonalLoop=1;jettySize=auto;html=1;entryX=0.5;entryY=0;entryDx=0;entryDy=0;shape=flexArrow;" parent="ybUe9dVBp182NsWoZHfQ-28" source="ybUe9dVBp182NsWoZHfQ-83" target="ybUe9dVBp182NsWoZHfQ-89" edge="1">
          <mxGeometry relative="1" as="geometry">
            <Array as="points">
              <mxPoint x="585" y="780" />
              <mxPoint x="352" y="780" />
              <mxPoint x="352" y="360" />
              <mxPoint x="195" y="360" />
            </Array>
          </mxGeometry>
        </mxCell>
        <mxCell id="ybUe9dVBp182NsWoZHfQ-83" value="#ifdef directives" style="swimlane;fillColor=#ffe6cc;strokeColor=#d79b00;" parent="ybUe9dVBp182NsWoZHfQ-28" vertex="1">
          <mxGeometry x="450" y="590" width="270" height="170" as="geometry" />
        </mxCell>
        <mxCell id="ybUe9dVBp182NsWoZHfQ-84" value="IMMERSED_BOUNDARY" style="rounded=1;whiteSpace=wrap;html=1;fillColor=#ffe6cc;strokeColor=#d79b00;" parent="ybUe9dVBp182NsWoZHfQ-83" vertex="1">
          <mxGeometry x="15" y="80" width="170" height="20" as="geometry" />
        </mxCell>
        <mxCell id="ybUe9dVBp182NsWoZHfQ-85" value="LAG_PARTICLE_RESOLVED" style="rounded=1;whiteSpace=wrap;html=1;fillColor=#ffe6cc;strokeColor=#d79b00;" parent="ybUe9dVBp182NsWoZHfQ-83" vertex="1">
          <mxGeometry x="15" y="50" width="180" height="20" as="geometry" />
        </mxCell>
        <mxCell id="ybUe9dVBp182NsWoZHfQ-86" value="CONSTANT_MASSFLUX" style="rounded=1;whiteSpace=wrap;html=1;fillColor=#ffe6cc;strokeColor=#d79b00;" parent="ybUe9dVBp182NsWoZHfQ-83" vertex="1">
          <mxGeometry x="15" y="110" width="160" height="20" as="geometry" />
        </mxCell>
        <mxCell id="ybUe9dVBp182NsWoZHfQ-87" value="IMMERSED_BOUNDARY" style="rounded=1;whiteSpace=wrap;html=1;fillColor=#ffe6cc;strokeColor=#d79b00;" parent="ybUe9dVBp182NsWoZHfQ-83" vertex="1">
          <mxGeometry x="15" y="140" width="170" height="20" as="geometry" />
        </mxCell>
        <mxCell id="ybUe9dVBp182NsWoZHfQ-89" value="Setup linear system" style="rounded=1;whiteSpace=wrap;html=1;" parent="ybUe9dVBp182NsWoZHfQ-28" vertex="1">
          <mxGeometry x="135" y="400" width="120" height="30" as="geometry" />
        </mxCell>
        <mxCell id="ybUe9dVBp182NsWoZHfQ-90" value="Setup solver" style="rounded=1;whiteSpace=wrap;html=1;" parent="ybUe9dVBp182NsWoZHfQ-28" vertex="1">
          <mxGeometry x="135" y="440" width="120" height="30" as="geometry" />
        </mxCell>
        <mxCell id="ybUe9dVBp182NsWoZHfQ-93" value="End of procedure" style="swimlane;" parent="ybUe9dVBp182NsWoZHfQ-28" vertex="1">
          <mxGeometry x="110" y="520" width="170" height="200" as="geometry" />
        </mxCell>
        <mxCell id="ybUe9dVBp182NsWoZHfQ-94" value="Delete fields" style="rounded=1;whiteSpace=wrap;html=1;" parent="ybUe9dVBp182NsWoZHfQ-93" vertex="1">
          <mxGeometry x="25" y="80" width="120" height="30" as="geometry" />
        </mxCell>
        <mxCell id="ybUe9dVBp182NsWoZHfQ-95" value="Delete timer" style="rounded=1;whiteSpace=wrap;html=1;" parent="ybUe9dVBp182NsWoZHfQ-93" vertex="1">
          <mxGeometry x="25" y="120" width="120" height="30" as="geometry" />
        </mxCell>
        <mxCell id="ybUe9dVBp182NsWoZHfQ-96" value="Delete grid" style="rounded=1;whiteSpace=wrap;html=1;" parent="ybUe9dVBp182NsWoZHfQ-93" vertex="1">
          <mxGeometry x="25" y="160" width="120" height="30" as="geometry" />
        </mxCell>
        <mxCell id="ybUe9dVBp182NsWoZHfQ-97" value="Delete additional fields" style="rounded=1;whiteSpace=wrap;html=1;fillColor=#ffe6cc;strokeColor=#d79b00;" parent="ybUe9dVBp182NsWoZHfQ-93" vertex="1">
          <mxGeometry x="25" y="30" width="120" height="40" as="geometry" />
        </mxCell>
        <mxCell id="ybUe9dVBp182NsWoZHfQ-99" value="Solve" style="rounded=1;whiteSpace=wrap;html=1;" parent="ybUe9dVBp182NsWoZHfQ-28" vertex="1">
          <mxGeometry x="135" y="482" width="120" height="28" as="geometry" />
        </mxCell>
        <mxCell id="ybUe9dVBp182NsWoZHfQ-104" value="Viscosity.c" style="swimlane;" parent="1" vertex="1">
          <mxGeometry x="580" y="1170" width="265" height="290" as="geometry" />
        </mxCell>
        <mxCell id="ybUe9dVBp182NsWoZHfQ-107" value="Viscosity_destroy()" style="swimlane;fontStyle=0;childLayout=stackLayout;horizontal=1;startSize=26;fillColor=none;horizontalStack=0;resizeParent=1;resizeParentMax=0;resizeLast=0;collapsible=1;marginBottom=0;" parent="ybUe9dVBp182NsWoZHfQ-104" vertex="1">
          <mxGeometry x="62.5" y="108" width="140" height="52" as="geometry" />
        </mxCell>
        <mxCell id="ybUe9dVBp182NsWoZHfQ-108" value=" " style="text;strokeColor=none;fillColor=none;align=left;verticalAlign=top;spacingLeft=4;spacingRight=4;overflow=hidden;rotatable=0;points=[[0,0.5],[1,0.5]];portConstraint=eastwest;" parent="ybUe9dVBp182NsWoZHfQ-107" vertex="1">
          <mxGeometry y="26" width="140" height="26" as="geometry" />
        </mxCell>
        <mxCell id="ybUe9dVBp182NsWoZHfQ-109" value="Viscosity_create()" style="swimlane;fontStyle=0;childLayout=stackLayout;horizontal=1;startSize=26;fillColor=none;horizontalStack=0;resizeParent=1;resizeParentMax=0;resizeLast=0;collapsible=1;marginBottom=0;" parent="ybUe9dVBp182NsWoZHfQ-104" vertex="1">
          <mxGeometry x="62.5" y="48" width="140" height="52" as="geometry" />
        </mxCell>
        <mxCell id="ybUe9dVBp182NsWoZHfQ-110" value=" " style="text;strokeColor=none;fillColor=none;align=left;verticalAlign=top;spacingLeft=4;spacingRight=4;overflow=hidden;rotatable=0;points=[[0,0.5],[1,0.5]];portConstraint=eastwest;" parent="ybUe9dVBp182NsWoZHfQ-109" vertex="1">
          <mxGeometry y="26" width="140" height="26" as="geometry" />
        </mxCell>
        <mxCell id="ybUe9dVBp182NsWoZHfQ-105" value="Viscosity_set_cell_edges()" style="swimlane;fontStyle=0;childLayout=stackLayout;horizontal=1;startSize=26;fillColor=none;horizontalStack=0;resizeParent=1;resizeParentMax=0;resizeLast=0;collapsible=1;marginBottom=0;" parent="ybUe9dVBp182NsWoZHfQ-104" vertex="1">
          <mxGeometry x="51.25" y="170" width="162.5" height="52" as="geometry" />
        </mxCell>
        <mxCell id="ybUe9dVBp182NsWoZHfQ-106" value=" " style="text;strokeColor=none;fillColor=none;align=left;verticalAlign=top;spacingLeft=4;spacingRight=4;overflow=hidden;rotatable=0;points=[[0,0.5],[1,0.5]];portConstraint=eastwest;" parent="ybUe9dVBp182NsWoZHfQ-105" vertex="1">
          <mxGeometry y="26" width="162.5" height="26" as="geometry" />
        </mxCell>
        <mxCell id="ybUe9dVBp182NsWoZHfQ-111" value="Viscosity_update_boundaries()" style="swimlane;fontStyle=0;childLayout=stackLayout;horizontal=1;startSize=26;fillColor=none;horizontalStack=0;resizeParent=1;resizeParentMax=0;resizeLast=0;collapsible=1;marginBottom=0;" parent="ybUe9dVBp182NsWoZHfQ-104" vertex="1">
          <mxGeometry x="29.060000000000002" y="230" width="206.88" height="52" as="geometry" />
        </mxCell>
        <mxCell id="ybUe9dVBp182NsWoZHfQ-112" value=" " style="text;strokeColor=none;fillColor=none;align=left;verticalAlign=top;spacingLeft=4;spacingRight=4;overflow=hidden;rotatable=0;points=[[0,0.5],[1,0.5]];portConstraint=eastwest;" parent="ybUe9dVBp182NsWoZHfQ-111" vertex="1">
          <mxGeometry y="26" width="206.88" height="26" as="geometry" />
        </mxCell>
        <mxCell id="ybUe9dVBp182NsWoZHfQ-121" value="Input.c" style="swimlane;" parent="1" vertex="1">
          <mxGeometry x="20" y="1640" width="210" height="340" as="geometry" />
        </mxCell>
        <mxCell id="ybUe9dVBp182NsWoZHfQ-122" value="Input_set_parameters()" style="swimlane;fontStyle=0;childLayout=stackLayout;horizontal=1;startSize=26;fillColor=none;horizontalStack=0;resizeParent=1;resizeParentMax=0;resizeLast=0;collapsible=1;marginBottom=0;" parent="ybUe9dVBp182NsWoZHfQ-121" vertex="1">
          <mxGeometry x="27.5" y="40" width="155" height="52" as="geometry" />
        </mxCell>
        <mxCell id="ybUe9dVBp182NsWoZHfQ-123" value=" " style="text;strokeColor=none;fillColor=none;align=left;verticalAlign=top;spacingLeft=4;spacingRight=4;overflow=hidden;rotatable=0;points=[[0,0.5],[1,0.5]];portConstraint=eastwest;" parent="ybUe9dVBp182NsWoZHfQ-122" vertex="1">
          <mxGeometry y="26" width="155" height="26" as="geometry" />
        </mxCell>
        <mxCell id="ybUe9dVBp182NsWoZHfQ-128" value=" Input_lskip()" style="swimlane;fontStyle=0;childLayout=stackLayout;horizontal=1;startSize=26;fillColor=none;horizontalStack=0;resizeParent=1;resizeParentMax=0;resizeLast=0;collapsible=1;marginBottom=0;" parent="ybUe9dVBp182NsWoZHfQ-121" vertex="1">
          <mxGeometry x="33.75" y="220" width="142.5" height="52" as="geometry" />
        </mxCell>
        <mxCell id="ybUe9dVBp182NsWoZHfQ-129" value=" " style="text;strokeColor=none;fillColor=none;align=left;verticalAlign=top;spacingLeft=4;spacingRight=4;overflow=hidden;rotatable=0;points=[[0,0.5],[1,0.5]];portConstraint=eastwest;" parent="ybUe9dVBp182NsWoZHfQ-128" vertex="1">
          <mxGeometry y="26" width="142.5" height="26" as="geometry" />
        </mxCell>
        <mxCell id="ybUe9dVBp182NsWoZHfQ-126" value="Input_handle_array()" style="swimlane;fontStyle=0;childLayout=stackLayout;horizontal=1;startSize=26;fillColor=none;horizontalStack=0;resizeParent=1;resizeParentMax=0;resizeLast=0;collapsible=1;marginBottom=0;" parent="ybUe9dVBp182NsWoZHfQ-121" vertex="1">
          <mxGeometry x="35" y="158" width="140" height="52" as="geometry" />
        </mxCell>
        <mxCell id="ybUe9dVBp182NsWoZHfQ-127" value=" " style="text;strokeColor=none;fillColor=none;align=left;verticalAlign=top;spacingLeft=4;spacingRight=4;overflow=hidden;rotatable=0;points=[[0,0.5],[1,0.5]];portConstraint=eastwest;" parent="ybUe9dVBp182NsWoZHfQ-126" vertex="1">
          <mxGeometry y="26" width="140" height="26" as="geometry" />
        </mxCell>
        <mxCell id="ybUe9dVBp182NsWoZHfQ-124" value="Input_handler()" style="swimlane;fontStyle=0;childLayout=stackLayout;horizontal=1;startSize=26;fillColor=none;horizontalStack=0;resizeParent=1;resizeParentMax=0;resizeLast=0;collapsible=1;marginBottom=0;" parent="ybUe9dVBp182NsWoZHfQ-121" vertex="1">
          <mxGeometry x="35" y="98" width="140" height="52" as="geometry" />
        </mxCell>
        <mxCell id="ybUe9dVBp182NsWoZHfQ-125" value=" " style="text;strokeColor=none;fillColor=none;align=left;verticalAlign=top;spacingLeft=4;spacingRight=4;overflow=hidden;rotatable=0;points=[[0,0.5],[1,0.5]];portConstraint=eastwest;" parent="ybUe9dVBp182NsWoZHfQ-124" vertex="1">
          <mxGeometry y="26" width="140" height="26" as="geometry" />
        </mxCell>
        <mxCell id="ybUe9dVBp182NsWoZHfQ-130" value="Input_find_char_next()" style="swimlane;fontStyle=0;childLayout=stackLayout;horizontal=1;startSize=26;fillColor=none;horizontalStack=0;resizeParent=1;resizeParentMax=0;resizeLast=0;collapsible=1;marginBottom=0;" parent="ybUe9dVBp182NsWoZHfQ-121" vertex="1">
          <mxGeometry x="20.619999999999994" y="280" width="168.75" height="52" as="geometry" />
        </mxCell>
        <mxCell id="ybUe9dVBp182NsWoZHfQ-131" value=" " style="text;strokeColor=none;fillColor=none;align=left;verticalAlign=top;spacingLeft=4;spacingRight=4;overflow=hidden;rotatable=0;points=[[0,0.5],[1,0.5]];portConstraint=eastwest;" parent="ybUe9dVBp182NsWoZHfQ-121" vertex="1">
          <mxGeometry x="28.75" y="302" width="140" height="26" as="geometry" />
        </mxCell>
        <mxCell id="ybUe9dVBp182NsWoZHfQ-132" value="Grid.c" style="swimlane;" parent="1" vertex="1">
          <mxGeometry x="270" y="1640" width="250" height="330" as="geometry" />
        </mxCell>
        <mxCell id="ybUe9dVBp182NsWoZHfQ-133" value="Grid_create()" style="swimlane;fontStyle=0;childLayout=stackLayout;horizontal=1;startSize=26;fillColor=none;horizontalStack=0;resizeParent=1;resizeParentMax=0;resizeLast=0;collapsible=1;marginBottom=0;" parent="ybUe9dVBp182NsWoZHfQ-132" vertex="1">
          <mxGeometry x="48" y="30" width="155" height="52" as="geometry" />
        </mxCell>
        <mxCell id="ybUe9dVBp182NsWoZHfQ-134" value=" " style="text;strokeColor=none;fillColor=none;align=left;verticalAlign=top;spacingLeft=4;spacingRight=4;overflow=hidden;rotatable=0;points=[[0,0.5],[1,0.5]];portConstraint=eastwest;" parent="ybUe9dVBp182NsWoZHfQ-133" vertex="1">
          <mxGeometry y="26" width="155" height="26" as="geometry" />
        </mxCell>
        <mxCell id="ybUe9dVBp182NsWoZHfQ-139" value="Grid_destroy()" style="swimlane;fontStyle=0;childLayout=stackLayout;horizontal=1;startSize=26;fillColor=none;horizontalStack=0;resizeParent=1;resizeParentMax=0;resizeLast=0;collapsible=1;marginBottom=0;" parent="ybUe9dVBp182NsWoZHfQ-132" vertex="1">
          <mxGeometry x="55" y="90" width="140" height="52" as="geometry" />
        </mxCell>
        <mxCell id="ybUe9dVBp182NsWoZHfQ-140" value=" " style="text;strokeColor=none;fillColor=none;align=left;verticalAlign=top;spacingLeft=4;spacingRight=4;overflow=hidden;rotatable=0;points=[[0,0.5],[1,0.5]];portConstraint=eastwest;" parent="ybUe9dVBp182NsWoZHfQ-139" vertex="1">
          <mxGeometry y="26" width="140" height="26" as="geometry" />
        </mxCell>
        <mxCell id="ybUe9dVBp182NsWoZHfQ-137" value="Grid_generate_mesh_coordinates()" style="swimlane;fontStyle=0;childLayout=stackLayout;horizontal=1;startSize=26;fillColor=none;horizontalStack=0;resizeParent=1;resizeParentMax=0;resizeLast=0;collapsible=1;marginBottom=0;" parent="ybUe9dVBp182NsWoZHfQ-132" vertex="1">
          <mxGeometry x="13" y="150" width="225" height="52" as="geometry" />
        </mxCell>
        <mxCell id="ybUe9dVBp182NsWoZHfQ-138" value=" " style="text;strokeColor=none;fillColor=none;align=left;verticalAlign=top;spacingLeft=4;spacingRight=4;overflow=hidden;rotatable=0;points=[[0,0.5],[1,0.5]];portConstraint=eastwest;" parent="ybUe9dVBp182NsWoZHfQ-137" vertex="1">
          <mxGeometry y="26" width="225" height="26" as="geometry" />
        </mxCell>
        <mxCell id="ybUe9dVBp182NsWoZHfQ-135" value="Grid_describe_interface()" style="swimlane;fontStyle=0;childLayout=stackLayout;horizontal=1;startSize=26;fillColor=none;horizontalStack=0;resizeParent=1;resizeParentMax=0;resizeLast=0;collapsible=1;marginBottom=0;" parent="ybUe9dVBp182NsWoZHfQ-132" vertex="1">
          <mxGeometry x="42" y="210" width="166.25" height="52" as="geometry" />
        </mxCell>
        <mxCell id="ybUe9dVBp182NsWoZHfQ-136" value=" " style="text;strokeColor=none;fillColor=none;align=left;verticalAlign=top;spacingLeft=4;spacingRight=4;overflow=hidden;rotatable=0;points=[[0,0.5],[1,0.5]];portConstraint=eastwest;" parent="ybUe9dVBp182NsWoZHfQ-135" vertex="1">
          <mxGeometry y="26" width="166.25" height="26" as="geometry" />
        </mxCell>
        <mxCell id="ybUe9dVBp182NsWoZHfQ-141" value="Grid_import_grid_from_file()" style="swimlane;fontStyle=0;childLayout=stackLayout;horizontal=1;startSize=26;fillColor=none;horizontalStack=0;resizeParent=1;resizeParentMax=0;resizeLast=0;collapsible=1;marginBottom=0;" parent="ybUe9dVBp182NsWoZHfQ-132" vertex="1">
          <mxGeometry x="30.810000000000002" y="270" width="189.38" height="52" as="geometry" />
        </mxCell>
        <mxCell id="ybUe9dVBp182NsWoZHfQ-142" value=" " style="text;strokeColor=none;fillColor=none;align=left;verticalAlign=top;spacingLeft=4;spacingRight=4;overflow=hidden;rotatable=0;points=[[0,0.5],[1,0.5]];portConstraint=eastwest;" parent="ybUe9dVBp182NsWoZHfQ-132" vertex="1">
          <mxGeometry x="28.75" y="302" width="140" height="26" as="geometry" />
        </mxCell>
        <mxCell id="ybUe9dVBp182NsWoZHfQ-143" value="Timer.c" style="swimlane;" parent="1" vertex="1">
          <mxGeometry x="570" y="1640" width="190" height="150" as="geometry" />
        </mxCell>
        <mxCell id="ybUe9dVBp182NsWoZHfQ-144" value="Timer_create()" style="swimlane;fontStyle=0;childLayout=stackLayout;horizontal=1;startSize=26;fillColor=none;horizontalStack=0;resizeParent=1;resizeParentMax=0;resizeLast=0;collapsible=1;marginBottom=0;" parent="ybUe9dVBp182NsWoZHfQ-143" vertex="1">
          <mxGeometry x="17.5" y="30" width="155" height="52" as="geometry" />
        </mxCell>
        <mxCell id="ybUe9dVBp182NsWoZHfQ-145" value=" " style="text;strokeColor=none;fillColor=none;align=left;verticalAlign=top;spacingLeft=4;spacingRight=4;overflow=hidden;rotatable=0;points=[[0,0.5],[1,0.5]];portConstraint=eastwest;" parent="ybUe9dVBp182NsWoZHfQ-144" vertex="1">
          <mxGeometry y="26" width="155" height="26" as="geometry" />
        </mxCell>
        <mxCell id="ybUe9dVBp182NsWoZHfQ-146" value="Timer_destroy()" style="swimlane;fontStyle=0;childLayout=stackLayout;horizontal=1;startSize=26;fillColor=none;horizontalStack=0;resizeParent=1;resizeParentMax=0;resizeLast=0;collapsible=1;marginBottom=0;" parent="ybUe9dVBp182NsWoZHfQ-143" vertex="1">
          <mxGeometry x="24.5" y="90" width="140" height="52" as="geometry" />
        </mxCell>
        <mxCell id="ybUe9dVBp182NsWoZHfQ-147" value=" " style="text;strokeColor=none;fillColor=none;align=left;verticalAlign=top;spacingLeft=4;spacingRight=4;overflow=hidden;rotatable=0;points=[[0,0.5],[1,0.5]];portConstraint=eastwest;" parent="ybUe9dVBp182NsWoZHfQ-146" vertex="1">
          <mxGeometry y="26" width="140" height="26" as="geometry" />
        </mxCell>
        <mxCell id="ybUe9dVBp182NsWoZHfQ-153" value=" " style="text;strokeColor=none;fillColor=none;align=left;verticalAlign=top;spacingLeft=4;spacingRight=4;overflow=hidden;rotatable=0;points=[[0,0.5],[1,0.5]];portConstraint=eastwest;" parent="ybUe9dVBp182NsWoZHfQ-143" vertex="1">
          <mxGeometry x="28.75" y="302" width="140" height="26" as="geometry" />
        </mxCell>
        <mxCell id="ybUe9dVBp182NsWoZHfQ-154" value="direct_solver.c" style="swimlane;" parent="1" vertex="1">
          <mxGeometry x="560" y="1840" width="190" height="150" as="geometry" />
        </mxCell>
        <mxCell id="ybUe9dVBp182NsWoZHfQ-155" value="ltridiag()" style="swimlane;fontStyle=0;childLayout=stackLayout;horizontal=1;startSize=26;fillColor=none;horizontalStack=0;resizeParent=1;resizeParentMax=0;resizeLast=0;collapsible=1;marginBottom=0;" parent="ybUe9dVBp182NsWoZHfQ-154" vertex="1">
          <mxGeometry x="48.75" y="30" width="92.5" height="52" as="geometry" />
        </mxCell>
        <mxCell id="ybUe9dVBp182NsWoZHfQ-156" value=" " style="text;strokeColor=none;fillColor=none;align=left;verticalAlign=top;spacingLeft=4;spacingRight=4;overflow=hidden;rotatable=0;points=[[0,0.5],[1,0.5]];portConstraint=eastwest;" parent="ybUe9dVBp182NsWoZHfQ-155" vertex="1">
          <mxGeometry y="26" width="92.5" height="26" as="geometry" />
        </mxCell>
        <mxCell id="ybUe9dVBp182NsWoZHfQ-157" value="lsolver_transpose_setup()" style="swimlane;fontStyle=0;childLayout=stackLayout;horizontal=1;startSize=26;fillColor=none;horizontalStack=0;resizeParent=1;resizeParentMax=0;resizeLast=0;collapsible=1;marginBottom=0;" parent="ybUe9dVBp182NsWoZHfQ-154" vertex="1">
          <mxGeometry x="16.5" y="90" width="164.5" height="52" as="geometry" />
        </mxCell>
        <mxCell id="ybUe9dVBp182NsWoZHfQ-158" value=" " style="text;strokeColor=none;fillColor=none;align=left;verticalAlign=top;spacingLeft=4;spacingRight=4;overflow=hidden;rotatable=0;points=[[0,0.5],[1,0.5]];portConstraint=eastwest;" parent="ybUe9dVBp182NsWoZHfQ-157" vertex="1">
          <mxGeometry y="26" width="164.5" height="26" as="geometry" />
        </mxCell>
        <mxCell id="ybUe9dVBp182NsWoZHfQ-159" value=" " style="text;strokeColor=none;fillColor=none;align=left;verticalAlign=top;spacingLeft=4;spacingRight=4;overflow=hidden;rotatable=0;points=[[0,0.5],[1,0.5]];portConstraint=eastwest;" parent="ybUe9dVBp182NsWoZHfQ-154" vertex="1">
          <mxGeometry x="28.75" y="302" width="140" height="26" as="geometry" />
        </mxCell>
        <mxCell id="ybUe9dVBp182NsWoZHfQ-160" value="Temporal_int.c" style="swimlane;" parent="1" vertex="1">
          <mxGeometry x="830" y="1620" width="650" height="740" as="geometry" />
        </mxCell>
        <mxCell id="ybUe9dVBp182NsWoZHfQ-166" value="test_2d_output()" style="swimlane;fontStyle=0;childLayout=stackLayout;horizontal=1;startSize=26;fillColor=none;horizontalStack=0;resizeParent=1;resizeParentMax=0;resizeLast=0;collapsible=1;marginBottom=0;" parent="ybUe9dVBp182NsWoZHfQ-160" vertex="1">
          <mxGeometry x="450.25" y="101" width="155" height="52" as="geometry" />
        </mxCell>
        <mxCell id="ybUe9dVBp182NsWoZHfQ-167" value=" " style="text;strokeColor=none;fillColor=none;align=left;verticalAlign=top;spacingLeft=4;spacingRight=4;overflow=hidden;rotatable=0;points=[[0,0.5],[1,0.5]];portConstraint=eastwest;" parent="ybUe9dVBp182NsWoZHfQ-166" vertex="1">
          <mxGeometry y="26" width="155" height="26" as="geometry" />
        </mxCell>
        <mxCell id="RW9D-tz8_o3N0sdUtWzn-19" style="edgeStyle=orthogonalEdgeStyle;rounded=0;orthogonalLoop=1;jettySize=auto;html=1;entryX=1;entryY=0.5;entryDx=0;entryDy=0;strokeWidth=2;" edge="1" parent="ybUe9dVBp182NsWoZHfQ-160" source="ybUe9dVBp182NsWoZHfQ-163" target="ybUe9dVBp182NsWoZHfQ-180">
          <mxGeometry relative="1" as="geometry">
            <Array as="points">
              <mxPoint x="440" y="575" />
            </Array>
          </mxGeometry>
        </mxCell>
        <mxCell id="ybUe9dVBp182NsWoZHfQ-163" value="Temporal_int_all_the_equations()" style="swimlane;fontStyle=0;childLayout=stackLayout;horizontal=1;startSize=26;fillColor=none;horizontalStack=0;resizeParent=1;resizeParentMax=0;resizeLast=0;collapsible=1;marginBottom=0;" parent="ybUe9dVBp182NsWoZHfQ-160" vertex="1">
          <mxGeometry x="420" y="40" width="215.5" height="52" as="geometry" />
        </mxCell>
        <mxCell id="ybUe9dVBp182NsWoZHfQ-164" value=" " style="text;strokeColor=none;fillColor=none;align=left;verticalAlign=top;spacingLeft=4;spacingRight=4;overflow=hidden;rotatable=0;points=[[0,0.5],[1,0.5]];portConstraint=eastwest;" parent="ybUe9dVBp182NsWoZHfQ-163" vertex="1">
          <mxGeometry y="26" width="215.5" height="26" as="geometry" />
        </mxCell>
        <mxCell id="ybUe9dVBp182NsWoZHfQ-168" value="Temporal_int_rk3()" style="swimlane;fontStyle=0;childLayout=stackLayout;horizontal=1;startSize=26;fillColor=none;horizontalStack=0;resizeParent=1;resizeParentMax=0;resizeLast=0;collapsible=1;marginBottom=0;" parent="ybUe9dVBp182NsWoZHfQ-160" vertex="1">
          <mxGeometry x="28.75" y="40" width="380" height="690" as="geometry">
            <mxRectangle x="28.75" y="40" width="190" height="26" as="alternateBounds" />
          </mxGeometry>
        </mxCell>
        <mxCell id="ybUe9dVBp182NsWoZHfQ-169" value="Initialize data" style="text;strokeColor=none;fillColor=none;align=left;verticalAlign=top;spacingLeft=4;spacingRight=4;overflow=hidden;rotatable=0;points=[[0,0.5],[1,0.5]];portConstraint=eastwest;" parent="ybUe9dVBp182NsWoZHfQ-168" vertex="1">
          <mxGeometry y="26" width="380" height="24" as="geometry" />
        </mxCell>
        <mxCell id="ybUe9dVBp182NsWoZHfQ-170" value="#ifdef:&#xa;         CONC&#xa;         LES&#xa;         RANS&#xa;         OUTPUT2D&#xa;&#xa;" style="text;strokeColor=#d79b00;fillColor=#ffe6cc;align=left;verticalAlign=top;spacingLeft=4;spacingRight=4;overflow=hidden;rotatable=0;points=[[0,0.5],[1,0.5]];portConstraint=eastwest;" parent="ybUe9dVBp182NsWoZHfQ-168" vertex="1">
          <mxGeometry y="50" width="380" height="80" as="geometry" />
        </mxCell>
        <mxCell id="ybUe9dVBp182NsWoZHfQ-171" value="Choose the data source - initial/resumed/prevTimeStep" style="text;strokeColor=none;fillColor=none;align=left;verticalAlign=top;spacingLeft=4;spacingRight=4;overflow=hidden;rotatable=0;points=[[0,0.5],[1,0.5]];portConstraint=eastwest;" parent="ybUe9dVBp182NsWoZHfQ-168" vertex="1">
          <mxGeometry y="130" width="380" height="20" as="geometry" />
        </mxCell>
        <mxCell id="ybUe9dVBp182NsWoZHfQ-172" value="&#xa;Calc. velocity in cell center" style="text;strokeColor=none;fillColor=none;align=left;verticalAlign=top;spacingLeft=4;spacingRight=4;overflow=hidden;rotatable=0;points=[[0,0.5],[1,0.5]];portConstraint=eastwest;" parent="ybUe9dVBp182NsWoZHfQ-168" vertex="1">
          <mxGeometry y="150" width="380" height="50" as="geometry" />
        </mxCell>
        <mxCell id="ybUe9dVBp182NsWoZHfQ-173" value="#ifdef:&#xa;         VAR_VISC&#xa;         CONC&#xa;         LAG_PARTICLE_RESOLVED&#xa;         OUTPUT2D&#xa;" style="text;strokeColor=#d79b00;fillColor=#ffe6cc;align=left;verticalAlign=top;spacingLeft=4;spacingRight=4;overflow=hidden;rotatable=0;points=[[0,0.5],[1,0.5]];portConstraint=eastwest;" parent="ybUe9dVBp182NsWoZHfQ-168" vertex="1">
          <mxGeometry y="200" width="380" height="80" as="geometry" />
        </mxCell>
        <mxCell id="ybUe9dVBp182NsWoZHfQ-174" value="Time stepping" style="text;strokeColor=none;fillColor=none;align=left;verticalAlign=top;spacingLeft=4;spacingRight=4;overflow=hidden;rotatable=0;points=[[0,0.5],[1,0.5]];portConstraint=eastwest;" parent="ybUe9dVBp182NsWoZHfQ-168" vertex="1">
          <mxGeometry y="280" width="380" height="30" as="geometry" />
        </mxCell>
        <mxCell id="ybUe9dVBp182NsWoZHfQ-175" value="         #ifdef&#xa;              LAG_PARTICLE_RESOLVED&#xa;              OUTPUT2D&#xa;              RANS" style="text;strokeColor=#d79b00;fillColor=#ffe6cc;align=left;verticalAlign=top;spacingLeft=4;spacingRight=4;overflow=hidden;rotatable=0;points=[[0,0.5],[1,0.5]];portConstraint=eastwest;" parent="ybUe9dVBp182NsWoZHfQ-168" vertex="1">
          <mxGeometry y="310" width="380" height="70" as="geometry" />
        </mxCell>
        <mxCell id="ybUe9dVBp182NsWoZHfQ-176" value="         Boundary Conditions" style="text;strokeColor=none;fillColor=none;align=left;verticalAlign=top;spacingLeft=4;spacingRight=4;overflow=hidden;rotatable=0;points=[[0,0.5],[1,0.5]];portConstraint=eastwest;" parent="ybUe9dVBp182NsWoZHfQ-168" vertex="1">
          <mxGeometry y="380" width="380" height="30" as="geometry" />
        </mxCell>
        <mxCell id="ybUe9dVBp182NsWoZHfQ-177" value="         #ifdef&#xa;              LEFT_INFLOW or RIGHT_INFLOW&#xa;              LEFT_OUTFLOW or RIGHT_OUTFLOW" style="text;strokeColor=#d79b00;fillColor=#ffe6cc;align=left;verticalAlign=top;spacingLeft=4;spacingRight=4;overflow=hidden;rotatable=0;points=[[0,0.5],[1,0.5]];portConstraint=eastwest;" parent="ybUe9dVBp182NsWoZHfQ-168" vertex="1">
          <mxGeometry y="410" width="380" height="50" as="geometry" />
        </mxCell>
        <mxCell id="ybUe9dVBp182NsWoZHfQ-178" value="         if(rk == 0): Calc. velocity in cell center" style="text;strokeColor=none;fillColor=none;align=left;verticalAlign=top;spacingLeft=4;spacingRight=4;overflow=hidden;rotatable=0;points=[[0,0.5],[1,0.5]];portConstraint=eastwest;" parent="ybUe9dVBp182NsWoZHfQ-168" vertex="1">
          <mxGeometry y="460" width="380" height="30" as="geometry" />
        </mxCell>
        <mxCell id="ybUe9dVBp182NsWoZHfQ-179" value="         #ifdef RANS" style="text;strokeColor=#d79b00;fillColor=#ffe6cc;align=left;verticalAlign=top;spacingLeft=4;spacingRight=4;overflow=hidden;rotatable=0;points=[[0,0.5],[1,0.5]];portConstraint=eastwest;" parent="ybUe9dVBp182NsWoZHfQ-168" vertex="1">
          <mxGeometry y="490" width="380" height="30" as="geometry" />
        </mxCell>
        <mxCell id="ybUe9dVBp182NsWoZHfQ-180" value="         Integration of u,v, conc" style="text;strokeColor=none;fillColor=none;align=left;verticalAlign=top;spacingLeft=4;spacingRight=4;overflow=hidden;rotatable=0;points=[[0,0.5],[1,0.5]];portConstraint=eastwest;" parent="ybUe9dVBp182NsWoZHfQ-168" vertex="1">
          <mxGeometry y="520" width="380" height="30" as="geometry" />
        </mxCell>
        <mxCell id="ybUe9dVBp182NsWoZHfQ-181" value="         #ifdef&#xa;              CONSTANT_MASSFLUX&#xa;              LES" style="text;strokeColor=#d79b00;fillColor=#ffe6cc;align=left;verticalAlign=top;spacingLeft=4;spacingRight=4;overflow=hidden;rotatable=0;points=[[0,0.5],[1,0.5]];portConstraint=eastwest;" parent="ybUe9dVBp182NsWoZHfQ-168" vertex="1">
          <mxGeometry y="550" width="380" height="50" as="geometry" />
        </mxCell>
        <mxCell id="ybUe9dVBp182NsWoZHfQ-182" value="         Update time&#xa;         Read stop file" style="text;strokeColor=none;fillColor=none;align=left;verticalAlign=top;spacingLeft=4;spacingRight=4;overflow=hidden;rotatable=0;points=[[0,0.5],[1,0.5]];portConstraint=eastwest;" parent="ybUe9dVBp182NsWoZHfQ-168" vertex="1">
          <mxGeometry y="600" width="380" height="40" as="geometry" />
        </mxCell>
        <mxCell id="ybUe9dVBp182NsWoZHfQ-183" value="         #ifdef&#xa;              OUTPUT2D&#xa;              LAG_PARTICLE_RESOLVED" style="text;strokeColor=#d79b00;fillColor=#ffe6cc;align=left;verticalAlign=top;spacingLeft=4;spacingRight=4;overflow=hidden;rotatable=0;points=[[0,0.5],[1,0.5]];portConstraint=eastwest;" parent="ybUe9dVBp182NsWoZHfQ-168" vertex="1">
          <mxGeometry y="640" width="380" height="50" as="geometry" />
        </mxCell>
        <mxCell id="ybUe9dVBp182NsWoZHfQ-165" value=" " style="text;strokeColor=none;fillColor=none;align=left;verticalAlign=top;spacingLeft=4;spacingRight=4;overflow=hidden;rotatable=0;points=[[0,0.5],[1,0.5]];portConstraint=eastwest;" parent="ybUe9dVBp182NsWoZHfQ-160" vertex="1">
          <mxGeometry x="28.75" y="302" width="140" height="26" as="geometry" />
        </mxCell>
        <mxCell id="RW9D-tz8_o3N0sdUtWzn-2" style="edgeStyle=orthogonalEdgeStyle;rounded=0;orthogonalLoop=1;jettySize=auto;html=1;entryX=1;entryY=0.5;entryDx=0;entryDy=0;strokeWidth=2;" edge="1" parent="1" source="ybUe9dVBp182NsWoZHfQ-109" target="ybUe9dVBp182NsWoZHfQ-35">
          <mxGeometry relative="1" as="geometry">
            <Array as="points">
              <mxPoint x="570" y="1244" />
              <mxPoint x="570" y="1140" />
              <mxPoint x="-40" y="1140" />
              <mxPoint x="-40" y="1360" />
            </Array>
          </mxGeometry>
        </mxCell>
        <mxCell id="RW9D-tz8_o3N0sdUtWzn-5" style="edgeStyle=orthogonalEdgeStyle;rounded=0;orthogonalLoop=1;jettySize=auto;html=1;entryX=1;entryY=0.5;entryDx=0;entryDy=0;strokeWidth=2;" edge="1" parent="1" source="ybUe9dVBp182NsWoZHfQ-14" target="ybUe9dVBp182NsWoZHfQ-35">
          <mxGeometry relative="1" as="geometry">
            <Array as="points">
              <mxPoint x="280" y="1230" />
              <mxPoint x="280" y="1140" />
              <mxPoint x="-40" y="1140" />
              <mxPoint x="-40" y="1360" />
            </Array>
          </mxGeometry>
        </mxCell>
        <mxCell id="RW9D-tz8_o3N0sdUtWzn-6" style="edgeStyle=orthogonalEdgeStyle;rounded=0;orthogonalLoop=1;jettySize=auto;html=1;entryX=1;entryY=0.5;entryDx=0;entryDy=0;strokeWidth=2;" edge="1" parent="1" source="ybUe9dVBp182NsWoZHfQ-2" target="ybUe9dVBp182NsWoZHfQ-35">
          <mxGeometry relative="1" as="geometry">
            <Array as="points">
              <mxPoint x="-40" y="1229" />
              <mxPoint x="-40" y="1360" />
            </Array>
          </mxGeometry>
        </mxCell>
        <mxCell id="RW9D-tz8_o3N0sdUtWzn-8" style="edgeStyle=orthogonalEdgeStyle;rounded=0;orthogonalLoop=1;jettySize=auto;html=1;entryX=1;entryY=0.5;entryDx=0;entryDy=0;strokeWidth=2;" edge="1" parent="1" source="ybUe9dVBp182NsWoZHfQ-133" target="ybUe9dVBp182NsWoZHfQ-33">
          <mxGeometry relative="1" as="geometry">
            <Array as="points">
              <mxPoint x="250" y="1696" />
              <mxPoint x="250" y="1580" />
              <mxPoint x="-110" y="1580" />
              <mxPoint x="-110" y="1280" />
            </Array>
          </mxGeometry>
        </mxCell>
        <mxCell id="RW9D-tz8_o3N0sdUtWzn-9" style="edgeStyle=orthogonalEdgeStyle;rounded=0;orthogonalLoop=1;jettySize=auto;html=1;entryX=1;entryY=0.5;entryDx=0;entryDy=0;strokeWidth=2;" edge="1" parent="1" source="ybUe9dVBp182NsWoZHfQ-144" target="ybUe9dVBp182NsWoZHfQ-34">
          <mxGeometry relative="1" as="geometry">
            <Array as="points">
              <mxPoint x="530" y="1696" />
              <mxPoint x="530" y="1610" />
              <mxPoint x="-130" y="1610" />
              <mxPoint x="-130" y="1310" />
            </Array>
          </mxGeometry>
        </mxCell>
        <mxCell id="RW9D-tz8_o3N0sdUtWzn-10" style="edgeStyle=orthogonalEdgeStyle;rounded=0;orthogonalLoop=1;jettySize=auto;html=1;entryX=1;entryY=0.5;entryDx=0;entryDy=0;strokeWidth=2;" edge="1" parent="1" source="ybUe9dVBp182NsWoZHfQ-122" target="ybUe9dVBp182NsWoZHfQ-32">
          <mxGeometry relative="1" as="geometry" />
        </mxCell>
        <mxCell id="RW9D-tz8_o3N0sdUtWzn-11" style="edgeStyle=orthogonalEdgeStyle;rounded=0;orthogonalLoop=1;jettySize=auto;html=1;entryX=0;entryY=0.5;entryDx=0;entryDy=0;strokeWidth=2;" edge="1" parent="1" source="ybUe9dVBp182NsWoZHfQ-7" target="ybUe9dVBp182NsWoZHfQ-94">
          <mxGeometry relative="1" as="geometry">
            <Array as="points">
              <mxPoint x="30" y="1302" />
              <mxPoint x="30" y="1030" />
              <mxPoint x="-880" y="1030" />
              <mxPoint x="-880" y="1715" />
            </Array>
          </mxGeometry>
        </mxCell>
        <mxCell id="RW9D-tz8_o3N0sdUtWzn-12" style="edgeStyle=orthogonalEdgeStyle;rounded=0;orthogonalLoop=1;jettySize=auto;html=1;entryX=0;entryY=0.5;entryDx=0;entryDy=0;strokeWidth=2;" edge="1" parent="1" source="ybUe9dVBp182NsWoZHfQ-16" target="ybUe9dVBp182NsWoZHfQ-94">
          <mxGeometry relative="1" as="geometry">
            <Array as="points">
              <mxPoint x="310" y="1294" />
              <mxPoint x="310" y="1030" />
              <mxPoint x="-880" y="1030" />
              <mxPoint x="-880" y="1715" />
            </Array>
          </mxGeometry>
        </mxCell>
        <mxCell id="RW9D-tz8_o3N0sdUtWzn-13" style="edgeStyle=orthogonalEdgeStyle;rounded=0;orthogonalLoop=1;jettySize=auto;html=1;strokeWidth=2;" edge="1" parent="1" source="ybUe9dVBp182NsWoZHfQ-107">
          <mxGeometry relative="1" as="geometry">
            <mxPoint x="-715" y="1715" as="targetPoint" />
            <Array as="points">
              <mxPoint x="610" y="1304" />
              <mxPoint x="610" y="1030" />
              <mxPoint x="-880" y="1030" />
              <mxPoint x="-880" y="1715" />
            </Array>
          </mxGeometry>
        </mxCell>
        <mxCell id="RW9D-tz8_o3N0sdUtWzn-14" style="edgeStyle=orthogonalEdgeStyle;rounded=0;orthogonalLoop=1;jettySize=auto;html=1;entryX=0;entryY=0.5;entryDx=0;entryDy=0;strokeWidth=2;" edge="1" parent="1" source="ybUe9dVBp182NsWoZHfQ-146" target="ybUe9dVBp182NsWoZHfQ-95">
          <mxGeometry relative="1" as="geometry">
            <Array as="points">
              <mxPoint x="530" y="1756" />
              <mxPoint x="530" y="2020" />
              <mxPoint x="-760" y="2020" />
              <mxPoint x="-760" y="1755" />
            </Array>
          </mxGeometry>
        </mxCell>
        <mxCell id="RW9D-tz8_o3N0sdUtWzn-15" style="edgeStyle=orthogonalEdgeStyle;rounded=0;orthogonalLoop=1;jettySize=auto;html=1;entryX=0;entryY=0.5;entryDx=0;entryDy=0;strokeWidth=2;" edge="1" parent="1" source="ybUe9dVBp182NsWoZHfQ-139" target="ybUe9dVBp182NsWoZHfQ-96">
          <mxGeometry relative="1" as="geometry">
            <Array as="points">
              <mxPoint x="250" y="1756" />
              <mxPoint x="250" y="2000" />
              <mxPoint x="-735" y="2000" />
              <mxPoint x="-735" y="1795" />
            </Array>
          </mxGeometry>
        </mxCell>
        <mxCell id="RW9D-tz8_o3N0sdUtWzn-17" style="edgeStyle=orthogonalEdgeStyle;rounded=0;orthogonalLoop=1;jettySize=auto;html=1;entryX=0;entryY=0.5;entryDx=0;entryDy=0;strokeWidth=2;" edge="1" parent="1" source="ybUe9dVBp182NsWoZHfQ-157" target="ybUe9dVBp182NsWoZHfQ-90">
          <mxGeometry relative="1" as="geometry">
            <Array as="points">
              <mxPoint x="659" y="2050" />
              <mxPoint x="-940" y="2050" />
              <mxPoint x="-940" y="1555" />
            </Array>
          </mxGeometry>
        </mxCell>
        <mxCell id="RW9D-tz8_o3N0sdUtWzn-18" style="edgeStyle=orthogonalEdgeStyle;rounded=0;orthogonalLoop=1;jettySize=auto;html=1;entryX=0;entryY=0.5;entryDx=0;entryDy=0;strokeWidth=2;" edge="1" parent="1" source="ybUe9dVBp182NsWoZHfQ-168" target="ybUe9dVBp182NsWoZHfQ-99">
          <mxGeometry relative="1" as="geometry">
            <Array as="points">
              <mxPoint x="-910" y="2090" />
              <mxPoint x="-910" y="1596" />
            </Array>
          </mxGeometry>
        </mxCell>
      </root>
    </mxGraphModel>
  </diagram>
</mxfile>
